<!DOCTYPE svg PUBLIC "-//W3C//DTD SVG 1.1//EN" "http://www.w3.org/Graphics/SVG/1.1/DTD/svg11.dtd">
<!-- Uploaded to: SVG Repo, www.svgrepo.com, Transformed by: SVG Repo Mixer Tools -->
<svg width="800px" height="800px" viewBox="0 0 48 48" id="b" xmlns="http://www.w3.org/2000/svg" fill="#57451d">
<g id="SVGRepo_bgCarrier" stroke-width="0"/>
<g id="SVGRepo_tracerCarrier" stroke-linecap="round" stroke-linejoin="round"/>
<g id="SVGRepo_iconCarrier">
<defs>
<style>.c{fill:none;stroke:#57451d;stroke-linecap:round;stroke-linejoin:round;}</style>
</defs>
<path class="c" d="m24,4.5c-8.1849,0-14.82,6.6351-14.82,14.82h0v1.08c.6,8.12,7.34,14.65,14.82,23.1,7.81-8.82,14.82-15.5,14.82-24.18h0c0-8.1849-6.6351-14.82-14.82-14.82h0Zm10,14.83c0,5.5228-4.4772,10-10,10s-10-4.4772-10-10,4.4772-10,10-10,10,4.4772,10,10Zm-4.0496-3.9058c0,1.1292-.9154,2.0445-2.0445,2.0445s-2.0445-.9154-2.0445-2.0445.9154-2.0445,2.0445-2.0445,2.0445.9154,2.0445,2.0445Z"/>
</g>
</svg>