<svg xmlns="http://www.w3.org/2000/svg" xmlns:xlink="http://www.w3.org/1999/xlink" width="500" zoomAndPan="magnify" viewBox="0 0 375 374.999991" height="500" preserveAspectRatio="xMidYMid meet" version="1.0"><defs><g/><clipPath id="f740e05d7f"><path d="M 125 144 L 249 144 L 249 207.925781 L 125 207.925781 Z M 125 144 " clip-rule="nonzero"/></clipPath><clipPath id="c4bfc7b357"><path d="M 122.429688 139 L 252.929688 139 L 252.929688 207.925781 L 122.429688 207.925781 Z M 122.429688 139 " clip-rule="nonzero"/></clipPath><clipPath id="4e210c2301"><path d="M 125 142 L 250 142 L 250 207.925781 L 125 207.925781 Z M 125 142 " clip-rule="nonzero"/></clipPath><clipPath id="243649f7aa"><path d="M 131 189 L 178 189 L 178 207.925781 L 131 207.925781 Z M 131 189 " clip-rule="nonzero"/></clipPath><clipPath id="cc4fc62234"><path d="M 130 188 L 182 188 L 182 207.925781 L 130 207.925781 Z M 130 188 " clip-rule="nonzero"/></clipPath><clipPath id="7fd89edffe"><path d="M 138 202 L 150 202 L 150 207.925781 L 138 207.925781 Z M 138 202 " clip-rule="nonzero"/></clipPath></defs><g clip-path="url(#f740e05d7f)"><path fill="#ffffff" d="M 128.480469 187.046875 C 131.367188 177.738281 136.722656 169.246094 143.699219 162.457031 C 155.777344 150.703125 171.910156 144.199219 188.636719 144.195312 C 197.265625 144.191406 205.808594 145.96875 213.640625 149.617188 C 224.277344 154.566406 233.550781 162.535156 239.726562 172.539062 C 241.554688 175.503906 243.105469 178.640625 244.371094 181.886719 C 247.34375 189.507812 248.707031 197.894531 248.46875 206.261719 C 248.148438 206.339844 247.824219 206.402344 247.503906 206.457031 C 247 206.539062 246.488281 206.609375 245.980469 206.667969 C 244 206.761719 242.007812 206.695312 240.039062 206.597656 C 237.316406 206.460938 234.601562 206.289062 231.875 206.210938 C 230.714844 206.09375 229.546875 205.992188 228.375 205.925781 C 222.953125 205.621094 217.515625 205.597656 212.089844 205.367188 C 209.390625 205.253906 206.683594 204.945312 203.976562 205 C 203.714844 205.003906 203.453125 205.011719 203.191406 205.019531 C 201.71875 204.898438 200.242188 204.796875 198.757812 204.757812 C 196.265625 204.691406 193.769531 204.691406 191.273438 204.675781 C 188.738281 204.660156 186.203125 204.625 183.667969 204.492188 C 183.414062 204.476562 183.160156 204.464844 182.90625 204.449219 C 173.882812 203.890625 164.835938 204.660156 155.878906 205.8125 C 152.734375 206.066406 149.601562 206.386719 146.476562 206.796875 C 141.496094 207.453125 136.480469 207.21875 131.480469 207.558594 C 129.757812 207.679688 127.882812 207.910156 126.058594 207.871094 C 125.617188 200.855469 126.394531 193.765625 128.480469 187.046875 " fill-opacity="1" fill-rule="nonzero"/></g><g clip-path="url(#c4bfc7b357)"><path fill="#ffd246" d="M 122.101562 205.941406 C 122.144531 206.445312 122.507812 206.746094 122.917969 206.996094 C 123.691406 207.46875 124.882812 207.789062 125.8125 207.859375 C 125.8125 207.859375 126.164062 207.84375 126.34375 207.808594 C 126.140625 204.632812 126.191406 201.503906 126.496094 198.308594 C 126.691406 196.242188 127.636719 194.230469 128.292969 192.257812 C 129.042969 189.996094 129.796875 187.734375 130.546875 185.472656 C 131.03125 184.015625 131.515625 182.554688 132.042969 181.113281 C 132.71875 179.277344 133.304688 177.945312 134.628906 176.574219 C 136.078125 175.078125 136.503906 172.757812 137.417969 170.941406 C 138.609375 168.589844 140.511719 166.6875 142.378906 164.832031 C 143.488281 163.730469 144.816406 162.671875 145.71875 161.394531 C 146.476562 160.324219 147.089844 159.597656 148.167969 158.78125 C 150.75 156.824219 153.472656 155.046875 156.304688 153.46875 C 159.167969 151.875 162.140625 150.488281 165.109375 149.101562 C 166.859375 148.285156 168.613281 147.476562 170.359375 146.648438 C 171.90625 145.917969 173.5 145.601562 175.164062 145.175781 C 176.933594 144.722656 178.761719 144.253906 180.609375 144 C 183.328125 143.625 186.199219 143.679688 188.972656 143.730469 C 189.714844 143.746094 190.480469 143.757812 191.226562 143.765625 C 195.316406 143.796875 199.253906 144.285156 202.929688 145.210938 C 207.078125 146.257812 211.152344 147.769531 215.039062 149.695312 C 217.085938 150.707031 219.097656 151.847656 221.019531 153.082031 C 226.421875 156.550781 231.183594 160.777344 235.175781 165.640625 C 235.71875 166.304688 236.257812 166.988281 236.773438 167.675781 C 237.136719 168.160156 237.5 168.667969 237.855469 169.1875 C 240.742188 173.398438 243.128906 178.25 244.941406 183.605469 C 246.429688 188.003906 248.066406 193.152344 248.621094 198.632812 C 248.863281 201.011719 248.945312 203.398438 248.875 205.78125 C 248.871094 205.957031 249.042969 206.085938 249.210938 206.03125 C 249.5 205.9375 249.875 205.824219 249.933594 205.800781 C 250.613281 205.527344 251.261719 205.164062 251.820312 204.683594 C 252.339844 204.230469 252.867188 203.570312 252.90625 202.847656 C 252.925781 202.488281 252.910156 202.113281 252.898438 201.742188 C 252.851562 200.238281 252.738281 198.734375 252.53125 197.238281 C 251.234375 187.785156 247.949219 178.605469 242.957031 170.472656 C 242.136719 169.132812 241.257812 167.808594 240.164062 166.675781 C 239.382812 165.867188 238.496094 165.160156 237.789062 164.289062 C 237.058594 163.382812 236.546875 162.320312 235.933594 161.328125 C 232.9375 156.472656 227.53125 152.617188 222.835938 149.507812 C 217.382812 145.894531 211.320312 143.191406 204.980469 141.570312 C 201.359375 140.644531 197.65625 140.070312 193.949219 139.601562 C 191.800781 139.332031 189.644531 139.09375 187.480469 139.144531 C 185.363281 139.195312 183.265625 139.519531 181.179688 139.871094 C 173.882812 141.113281 166.585938 142.785156 159.894531 145.949219 C 157.550781 147.058594 155.296875 148.34375 153.113281 149.738281 C 144.910156 155 138.378906 161.871094 133.058594 170.011719 C 131.113281 172.992188 129.421875 176.132812 127.992188 179.390625 C 126.535156 182.714844 125.191406 185.816406 124.265625 189.085938 C 123.058594 193.339844 123.085938 197.691406 122.4375 202.019531 C 122.394531 202.296875 122.355469 202.574219 122.316406 202.851562 C 122.222656 203.542969 122.136719 204.234375 122.066406 204.925781 C 122.082031 205.265625 122.074219 205.597656 122.101562 205.941406 " fill-opacity="1" fill-rule="nonzero"/></g><g clip-path="url(#4e210c2301)"><path fill="#ffd246" d="M 125.8125 207.859375 C 125.828125 207.859375 125.875 207.863281 125.882812 207.867188 C 126.496094 207.882812 127.117188 207.871094 127.734375 207.839844 C 127.734375 207.71875 127.734375 207.597656 127.734375 207.476562 C 127.734375 206.882812 127.710938 206.296875 127.691406 205.730469 C 127.640625 204.175781 127.589844 202.707031 127.957031 201.414062 C 128.175781 200.632812 128.335938 199.226562 128.585938 197 C 128.878906 194.316406 129.019531 190.863281 130.773438 188.640625 C 131.632812 187.550781 132.695312 186.648438 133.5 185.515625 C 134.082031 184.695312 134.667969 183.871094 135.066406 182.945312 C 135.355469 182.269531 135.539062 181.554688 135.722656 180.839844 C 135.96875 179.878906 136.296875 178.90625 136.414062 177.925781 C 136.53125 176.953125 136.542969 175.964844 136.949219 175.054688 C 137.457031 173.910156 138.378906 172.949219 138.921875 171.804688 C 139.238281 171.113281 139.539062 170.460938 139.871094 169.984375 C 140.765625 168.699219 141.722656 167.570312 142.8125 166.472656 C 143.875 165.402344 144.539062 163.96875 145.773438 163.0625 C 146.535156 162.503906 147.472656 162.1875 148.121094 161.503906 C 148.539062 161.0625 148.808594 160.5 149.183594 160.023438 C 149.761719 159.300781 150.433594 159.105469 151.199219 158.695312 C 151.8125 158.367188 152.3125 157.972656 152.980469 157.707031 C 153.726562 157.414062 154.652344 157.050781 155.671875 156.332031 C 157.757812 154.859375 159.945312 154.8125 162.378906 154.65625 C 162.785156 154.628906 163.195312 154.589844 163.589844 154.496094 C 164.675781 154.238281 165.621094 153.601562 166.542969 152.976562 C 167.714844 152.179688 168.402344 151.179688 169.4375 150.253906 C 171.253906 148.636719 173.753906 147.824219 176.132812 147.585938 C 177.628906 147.433594 179.101562 147.222656 180.523438 147.019531 C 182.882812 146.679688 185.113281 146.359375 187.34375 146.316406 C 189.117188 146.277344 190.707031 146.425781 192.199219 146.765625 C 193.511719 147.0625 194.828125 147.160156 196.105469 147.257812 C 196.847656 147.3125 197.550781 147.363281 198.214844 147.453125 C 199.96875 147.6875 201.605469 148.34375 203.164062 149.15625 C 204.601562 149.902344 205.886719 150.789062 207.296875 151.597656 C 207.828125 151.898438 208.363281 152.203125 208.941406 152.390625 C 209.851562 152.691406 210.839844 152.585938 211.785156 152.777344 C 212.792969 152.980469 213.824219 153.089844 214.832031 153.316406 C 217.035156 153.808594 219.019531 154.496094 220.902344 155.785156 C 221.984375 156.527344 223.109375 157.308594 224.074219 158.207031 C 225.15625 159.210938 226.113281 160.335938 227.234375 161.292969 C 229.351562 163.097656 232.042969 164.289062 233.640625 166.566406 C 234.089844 167.207031 234.4375 167.914062 234.78125 168.621094 C 235.042969 169.15625 235.304688 169.695312 235.515625 170.257812 C 235.863281 171.171875 236.066406 172.136719 236.445312 173.035156 C 236.601562 173.398438 236.859375 173.699219 237.015625 174.039062 C 237.207031 174.449219 237.21875 174.964844 237.308594 175.40625 C 237.71875 177.433594 238.394531 179.390625 239.097656 181.335938 C 239.398438 182.171875 239.707031 183.015625 240.214844 183.746094 C 240.867188 184.691406 241.792969 185.402344 242.511719 186.289062 C 243.203125 187.144531 243.371094 188.113281 243.78125 189.09375 C 244.695312 191.28125 244.769531 193.714844 245.140625 196.027344 C 245.484375 198.179688 245.746094 200.5 245.9375 203.121094 C 245.964844 203.539062 246.003906 203.96875 246.042969 204.421875 C 246.105469 205.136719 246.171875 205.894531 246.207031 206.640625 C 246.640625 206.589844 247.074219 206.527344 247.503906 206.457031 C 248.222656 206.339844 248.96875 206.140625 249.648438 205.894531 C 249.667969 204.886719 249.625 203.90625 249.566406 202.898438 C 249.539062 202.457031 249.503906 202.015625 249.460938 201.578125 C 249.238281 199.308594 248.988281 197.015625 248.5625 194.773438 C 248.203125 192.882812 247.53125 190.898438 247.519531 188.988281 C 247.507812 187.054688 246.566406 185.023438 245.898438 183.234375 C 245.3125 181.671875 244.726562 179.808594 243.679688 178.488281 C 242.652344 177.199219 242.144531 175.609375 241.425781 174.128906 C 240.832031 172.90625 240.226562 171.664062 239.457031 170.550781 C 238.675781 169.417969 237.746094 168.449219 236.878906 167.378906 C 234.65625 164.628906 233.511719 161.257812 230.625 159.058594 C 229.394531 158.117188 228.03125 157.363281 226.757812 156.476562 C 224.425781 154.84375 222.421875 152.78125 220.074219 151.175781 C 218.3125 149.972656 216.386719 149.042969 214.464844 148.121094 C 213.109375 147.46875 211.75 146.816406 210.335938 146.300781 C 209.046875 145.832031 207.714844 145.480469 206.375 145.160156 C 202.9375 144.335938 199.449219 143.714844 195.941406 143.300781 C 194.882812 143.175781 193.835938 142.953125 192.769531 142.882812 C 191.851562 142.820312 190.964844 142.949219 190.050781 142.832031 C 187.679688 142.519531 185.101562 142.871094 182.710938 142.9375 C 182.230469 142.953125 181.75 142.964844 181.269531 143.023438 C 180 143.171875 178.769531 143.617188 177.496094 143.714844 C 176.695312 143.777344 175.867188 143.707031 175.109375 143.964844 C 174.4375 144.191406 173.871094 144.660156 173.195312 144.875 C 172.046875 145.238281 170.765625 144.808594 169.601562 145.132812 C 168.753906 145.371094 168.070312 145.976562 167.3125 146.421875 C 166.054688 147.164062 164.589844 147.320312 163.398438 148.167969 C 162.488281 148.8125 161.675781 149.644531 160.621094 150.007812 C 159.863281 150.273438 159.027344 150.273438 158.285156 150.578125 C 157 151.109375 155.691406 151.976562 154.457031 152.65625 C 153.003906 153.457031 151.625 154.382812 150.339844 155.425781 C 149.195312 156.355469 148.125 157.375 147.058594 158.394531 C 146.292969 159.125 145.523438 159.855469 144.757812 160.585938 C 143.015625 162.25 141.269531 163.917969 139.742188 165.777344 C 136.878906 169.273438 134.863281 173.367188 132.871094 177.425781 C 132.019531 179.15625 130.957031 180.820312 130.363281 182.640625 C 129.695312 184.699219 129 187.132812 127.824219 188.960938 C 127.40625 189.824219 126.964844 190.679688 126.71875 191.605469 C 126.339844 193.035156 126.464844 194.550781 126.269531 196.019531 C 126.144531 196.957031 125.890625 197.875 125.742188 198.808594 C 125.484375 200.453125 125.558594 202.128906 125.632812 203.789062 C 125.691406 205.144531 125.753906 206.503906 125.8125 207.859375 " fill-opacity="1" fill-rule="nonzero"/></g><path fill="#ffd246" d="M 183.335938 203.347656 C 183.417969 203.105469 183.628906 202.925781 183.847656 202.800781 C 184.070312 202.675781 184.316406 202.59375 184.535156 202.464844 C 185.203125 202.078125 185.605469 201.285156 185.527344 200.523438 C 185.5 200.28125 185.4375 200.019531 185.558594 199.808594 C 185.675781 199.601562 185.949219 199.519531 186.1875 199.554688 C 186.53125 199.605469 186.804688 199.847656 187.132812 199.949219 C 187.628906 200.105469 188.160156 200.132812 188.671875 200.035156 C 188.890625 199.996094 189.132812 199.949219 189.3125 199.820312 C 189.480469 199.699219 189.585938 199.554688 189.816406 199.539062 C 190.242188 199.507812 190.574219 199.960938 190.710938 200.367188 C 190.851562 200.765625 190.941406 201.230469 191.304688 201.484375 C 191.542969 201.65625 191.867188 201.703125 192.070312 201.910156 C 192.269531 202.113281 192.28125 202.398438 192.199219 202.652344 C 192.160156 202.765625 192.101562 202.875 192.03125 202.964844 C 191.808594 203.265625 191.480469 203.492188 191.324219 203.828125 C 191.257812 203.96875 191.226562 204.121094 191.214844 204.273438 C 191.207031 204.417969 191.234375 204.550781 191.273438 204.675781 C 188.738281 204.660156 186.203125 204.625 183.667969 204.492188 C 183.660156 204.382812 183.640625 204.277344 183.609375 204.175781 C 183.601562 204.144531 183.589844 204.113281 183.582031 204.082031 C 183.464844 203.785156 183.21875 203.695312 183.335938 203.347656 " fill-opacity="1" fill-rule="nonzero"/><path fill="#ffd246" d="M 171.355469 154.890625 C 173.796875 150.582031 180.472656 150.09375 185.386719 149.992188 C 189.726562 149.90625 194.179688 150.207031 198.351562 151.46875 C 208.289062 154.476562 197.78125 173.128906 195.765625 178.175781 C 194.003906 182.597656 192.242188 187.015625 190.480469 191.4375 C 190.097656 192.390625 189.332031 195.945312 188.578125 196.480469 C 186.496094 197.945312 185.699219 194.175781 185.148438 192.921875 C 184.351562 191.113281 183.503906 189.324219 182.683594 187.527344 C 180.71875 183.222656 178.75 178.914062 176.78125 174.609375 C 174.457031 169.515625 170.128906 164.160156 170.421875 158.289062 C 170.488281 156.949219 170.820312 155.828125 171.355469 154.890625 " fill-opacity="1" fill-rule="nonzero"/><g clip-path="url(#243649f7aa)"><path fill="#ffd246" d="M 146.476562 206.796875 C 149.601562 206.386719 152.742188 206.066406 155.886719 205.8125 C 163.101562 204.882812 170.375 204.203125 177.648438 204.265625 C 176.71875 203.304688 174.457031 202.671875 173.558594 202.324219 C 164.058594 198.625 154.5625 194.921875 145.058594 191.230469 C 142.972656 190.417969 140.800781 189.78125 138.851562 189.898438 C 136.742188 190.019531 134.894531 191.023438 133.703125 193.640625 C 131.976562 197.433594 131.863281 202.007812 131.761719 206.105469 C 131.75 206.550781 131.742188 207.035156 131.742188 207.542969 C 136.65625 207.226562 141.582031 207.441406 146.476562 206.796875 " fill-opacity="1" fill-rule="nonzero"/></g><path fill="#ffd246" d="M 143.15625 184.613281 C 141.339844 182.703125 140.363281 180.429688 140.855469 177.699219 C 141.609375 173.5 144.566406 169.457031 147.703125 166.726562 C 152.078125 162.921875 158.613281 157.660156 164.660156 160.976562 C 167.863281 162.730469 169.363281 169.042969 170.84375 172.324219 C 172.917969 176.933594 174.996094 181.539062 177.070312 186.148438 C 178.710938 189.789062 184.417969 199.070312 182.769531 200.421875 C 181.234375 201.683594 176.011719 198.894531 173.402344 197.875 C 170.238281 196.644531 167.070312 195.410156 163.90625 194.175781 C 159.078125 192.296875 148.058594 189.765625 143.15625 184.613281 " fill-opacity="1" fill-rule="nonzero"/><path fill="#ffd246" d="M 203.191406 205.019531 C 203.453125 205.011719 203.714844 205.003906 203.976562 204.996094 C 206.679688 204.945312 209.390625 205.253906 212.089844 205.367188 C 217.519531 205.597656 222.953125 205.621094 228.375 205.925781 C 229.546875 205.992188 230.714844 206.09375 231.875 206.207031 C 234.601562 206.289062 237.316406 206.460938 240.039062 206.597656 C 240.859375 206.640625 241.683594 206.675781 242.507812 206.695312 C 242.550781 205.875 242.578125 205.105469 242.605469 204.421875 C 242.9375 196.492188 240.722656 183.925781 229.921875 188.542969 C 225.816406 190.296875 221.761719 192.175781 217.6875 193.992188 C 213.222656 195.984375 208.757812 197.972656 204.292969 199.960938 C 202.90625 200.578125 196.058594 202.8125 194.441406 204.695312 C 195.882812 204.703125 197.320312 204.71875 198.761719 204.757812 C 200.242188 204.796875 201.71875 204.898438 203.191406 205.019531 " fill-opacity="1" fill-rule="nonzero"/><path fill="#ffd246" d="M 211.632812 159.042969 C 216.140625 157.988281 221.792969 161.257812 225.765625 164.832031 C 230.621094 169.195312 235.492188 176.027344 230.480469 182.1875 C 226.957031 186.519531 220.714844 187.808594 215.84375 189.980469 C 211.511719 191.90625 207.175781 193.835938 202.84375 195.765625 C 201.078125 196.554688 195.152344 200.609375 193.296875 199.125 C 191.179688 197.429688 195.417969 191.449219 196.101562 189.714844 C 197.851562 185.273438 199.597656 180.832031 201.347656 176.386719 C 202.886719 172.476562 204.429688 168.566406 205.96875 164.652344 C 207.296875 161.277344 209.3125 159.589844 211.632812 159.042969 " fill-opacity="1" fill-rule="nonzero"/><path fill="#ffd246" d="M 177.621094 158.027344 C 178.777344 156.71875 180.625 155.824219 182.824219 155.515625 C 185.5625 155.128906 188.402344 155.722656 190.617188 157.144531 C 191.355469 157.621094 192.011719 158.179688 192.570312 158.808594 C 193.367188 159.710938 193.957031 160.855469 194.28125 162.121094 C 195.007812 164.953125 194.1875 167.625 193.320312 170.457031 C 193.234375 170.738281 193.148438 171.015625 193.0625 171.300781 C 192.597656 172.847656 191.957031 174.484375 191.109375 176.300781 C 190.894531 176.753906 190.695312 177.226562 190.503906 177.679688 C 189.773438 179.398438 189.085938 181.023438 187.691406 181.871094 C 187.203125 182.164062 186.457031 182.503906 185.691406 182.421875 C 185.375 182.390625 185.070312 182.277344 184.765625 182.082031 C 183.46875 181.25 182.480469 179.113281 181.761719 177.550781 C 181.589844 177.1875 181.429688 176.839844 181.273438 176.523438 C 180.039062 174.023438 178.933594 171.425781 177.996094 168.804688 C 176.585938 164.867188 175.4375 160.507812 177.621094 158.027344 Z M 169.191406 158.226562 C 168.957031 162.839844 171.253906 166.964844 173.476562 170.953125 C 174.28125 172.402344 175.042969 173.769531 175.660156 175.121094 L 178.613281 181.582031 L 181.5625 188.039062 C 181.835938 188.640625 182.113281 189.242188 182.390625 189.839844 C 182.933594 191.011719 183.492188 192.222656 184.019531 193.417969 C 184.09375 193.589844 184.191406 193.863281 184.292969 194.152344 C 184.734375 195.394531 185.277344 196.9375 186.402344 197.660156 C 186.8125 197.925781 187.257812 198.054688 187.726562 198.046875 C 188.25 198.035156 188.777344 197.847656 189.289062 197.488281 C 190.117188 196.902344 190.574219 195.464844 191.234375 193.164062 C 191.386719 192.628906 191.535156 192.121094 191.625 191.894531 L 196.914062 178.632812 C 197.1875 177.941406 197.652344 176.933594 198.191406 175.769531 C 199.703125 172.492188 201.992188 167.539062 203.109375 162.96875 C 203.714844 160.488281 204.117188 157.765625 203.476562 155.25 C 202.144531 150.011719 195.34375 150.296875 191.148438 149.523438 C 189.589844 149.234375 188.023438 148.945312 186.4375 148.898438 C 184.539062 148.84375 182.660156 149.144531 180.804688 149.511719 C 179.386719 149.792969 178.019531 149.679688 176.589844 149.996094 C 173.726562 150.621094 171.738281 151.710938 170.28125 154.28125 C 169.632812 155.425781 169.265625 156.753906 169.191406 158.226562 " fill-opacity="1" fill-rule="nonzero"/><g clip-path="url(#cc4fc62234)"><path fill="#ffd246" d="M 131.480469 207.558594 C 132.96875 207.457031 134.460938 207.40625 135.949219 207.371094 C 135.964844 207.304688 135.976562 207.238281 135.992188 207.171875 C 136.234375 206.011719 136.277344 204.695312 136.375 203.511719 C 136.476562 202.261719 137.054688 200.785156 137.835938 199.789062 C 138.617188 198.800781 139.761719 198.253906 140.996094 198.109375 C 141.550781 198.042969 142.050781 197.960938 142.617188 197.960938 C 142.835938 197.960938 143.722656 198.082031 143.867188 197.855469 C 144.589844 197.835938 145.320312 197.816406 146.035156 197.917969 C 147.125 198.074219 148.152344 198.511719 149.203125 198.835938 C 150.855469 199.347656 152.578125 199.601562 154.203125 200.183594 C 155.296875 200.574219 156.328125 201.113281 157.355469 201.644531 C 158.414062 202.195312 159.46875 202.742188 160.527344 203.292969 C 161.339844 203.714844 162.15625 204.140625 162.972656 204.5625 C 163.191406 204.675781 163.476562 204.792969 163.753906 204.921875 C 163.753906 204.921875 164.554688 204.847656 164.792969 204.828125 C 165.171875 204.792969 165.546875 204.761719 165.925781 204.730469 C 166.679688 204.671875 167.4375 204.613281 168.191406 204.5625 C 169.703125 204.460938 171.214844 204.382812 172.730469 204.332031 C 175.679688 204.230469 178.605469 204.320312 181.550781 204.371094 C 181.183594 203.808594 180.53125 203.507812 179.910156 203.25 C 178.617188 202.710938 177.300781 202.21875 175.96875 201.773438 C 174.796875 201.382812 173.445312 201.164062 172.363281 200.585938 C 171.15625 199.941406 169.777344 199.527344 168.503906 199.03125 C 167.175781 198.515625 165.851562 197.996094 164.523438 197.480469 C 158.292969 195.054688 151.847656 192.542969 145.503906 190.078125 C 141.296875 188.445312 135.960938 187.597656 132.703125 191.539062 C 132.316406 192.007812 131.980469 192.527344 131.816406 193.113281 C 131.4375 194.46875 131.652344 196.039062 131.394531 197.4375 C 131.246094 198.257812 130.773438 198.925781 130.554688 199.710938 C 130.371094 200.378906 130.292969 201.160156 130.199219 201.839844 C 129.941406 203.78125 130.503906 205.699219 130.511719 207.636719 C 130.839844 207.609375 131.160156 207.582031 131.480469 207.558594 " fill-opacity="1" fill-rule="nonzero"/></g><path fill="#ffd246" d="M 148.539062 174.355469 C 150.855469 171.414062 153.382812 169.578125 155.300781 169.449219 C 157.589844 169.292969 160.246094 169.984375 162.234375 171.261719 C 162.484375 171.425781 162.726562 171.59375 162.949219 171.773438 C 165.128906 173.484375 166.65625 175.914062 167.859375 178.0625 C 168.957031 180.015625 169.953125 182.054688 170.824219 184.125 C 170.941406 184.40625 171.0625 184.691406 171.1875 184.980469 C 171.628906 185.992188 172.082031 187.042969 172.382812 188.078125 C 172.59375 188.804688 172.707031 189.445312 172.726562 190.027344 C 172.75 190.777344 172.53125 191.445312 172.140625 191.820312 C 171.808594 192.132812 171.277344 192.324219 170.636719 192.359375 C 169.089844 192.4375 167.398438 191.960938 165.765625 191.5 C 165.457031 191.414062 165.148438 191.328125 164.847656 191.246094 C 162.632812 190.644531 160.699219 190.039062 158.949219 189.398438 C 155.910156 188.28125 153.316406 187.023438 151.011719 185.542969 C 150.886719 185.460938 150.761719 185.382812 150.640625 185.296875 C 147.894531 183.484375 146.441406 181.695312 146.054688 179.667969 C 145.722656 177.933594 147.554688 175.605469 148.539062 174.355469 Z M 139.640625 177.480469 C 139.117188 180.398438 140 183.082031 142.265625 185.464844 C 143.148438 186.394531 144.269531 187.296875 145.59375 188.148438 C 149.699219 190.785156 155.078125 192.53125 159.398438 193.9375 C 161.003906 194.457031 162.390625 194.910156 163.457031 195.324219 L 171.390625 198.417969 L 172.953125 199.027344 C 173.464844 199.222656 174.105469 199.503906 174.78125 199.804688 C 177.144531 200.839844 179.820312 202.011719 181.722656 201.976562 C 182.46875 201.960938 183.085938 201.757812 183.550781 201.375 C 184.886719 200.277344 184.210938 198.070312 183.28125 195.84375 C 182.425781 193.792969 181.152344 191.378906 180.027344 189.246094 C 179.292969 187.855469 178.597656 186.535156 178.195312 185.640625 L 176.632812 182.175781 L 171.96875 171.816406 C 171.625 171.054688 171.265625 170.085938 170.886719 169.058594 C 169.625 165.640625 168.195312 161.769531 165.582031 160.089844 C 165.476562 160.023438 165.363281 159.957031 165.253906 159.894531 C 163.746094 159.066406 162.074219 158.699219 160.367188 158.652344 C 158.613281 158.605469 157.195312 159.621094 155.511719 159.957031 C 154.933594 160.074219 154.335938 160.09375 153.761719 160.238281 C 150.902344 160.949219 148.621094 164.445312 146.675781 166.453125 C 146.355469 166.785156 146.03125 167.117188 145.707031 167.449219 C 144.421875 168.765625 143.25 170.097656 141.949219 171.382812 C 140.375 173.097656 140.035156 175.296875 139.640625 177.480469 " fill-opacity="1" fill-rule="nonzero"/><path fill="#ffd246" d="M 203.1875 205.019531 C 203.449219 205.011719 203.714844 205.003906 203.976562 204.996094 C 205.96875 204.960938 207.964844 205.117188 209.957031 205.25 C 210.746094 204.527344 211.929688 203.84375 212.988281 203.234375 C 213.296875 203.058594 213.589844 202.886719 213.871094 202.71875 C 214.878906 202.117188 215.925781 201.605469 217.03125 201.066406 C 217.382812 200.894531 217.734375 200.722656 218.082031 200.550781 C 222.203125 198.492188 226.3125 197.375 230.289062 197.234375 C 231.285156 197.199219 232.574219 197.210938 233.683594 197.625 C 233.9375 197.71875 234.179688 197.839844 234.40625 197.984375 C 236.53125 199.351562 237.066406 202.734375 237.199219 204.125 C 237.273438 204.898438 237.304688 205.675781 237.300781 206.453125 C 238.214844 206.503906 239.125 206.550781 240.039062 206.597656 C 241.269531 206.660156 242.507812 206.707031 243.742188 206.714844 C 243.828125 204.953125 244.207031 203.585938 243.886719 201.785156 C 243.640625 200.386719 243.46875 198.945312 243.140625 197.566406 C 242.835938 196.289062 242.363281 195.128906 242.355469 193.777344 C 242.355469 193.1875 242.414062 192.589844 242.324219 192 C 242.171875 190.992188 241.59375 190.089844 240.929688 189.3125 C 239.597656 187.753906 237.746094 186.523438 235.703125 186.171875 C 233.714844 185.828125 231.257812 186.628906 229.433594 187.410156 C 226.691406 188.582031 223.929688 189.828125 221.257812 191.035156 C 218.621094 192.226562 216.042969 193.257812 213.320312 194.222656 C 210.550781 195.199219 207.8125 196.320312 205.304688 197.859375 C 202.835938 199.371094 200.007812 200.207031 197.390625 201.417969 C 196.359375 201.894531 195.3125 202.402344 194.402344 203.089844 C 194.238281 203.214844 192.992188 204.683594 193.007812 204.683594 C 194.925781 204.695312 196.84375 204.707031 198.761719 204.757812 C 200.242188 204.796875 201.714844 204.898438 203.1875 205.019531 " fill-opacity="1" fill-rule="nonzero"/><path fill="#ffd246" d="M 209.757812 170.753906 C 210.3125 169.867188 210.902344 169.007812 211.632812 168.3125 C 212.894531 167.109375 214.769531 166.683594 216.496094 166.925781 C 218.976562 167.273438 221.421875 168.886719 222.949219 170.84375 C 223.582031 171.660156 224.042969 172.535156 224.449219 173.480469 C 224.761719 174.203125 225.316406 174.902344 225.527344 175.652344 C 225.636719 176.039062 225.609375 176.449219 225.566406 176.84375 C 225.117188 180.882812 221.980469 183.269531 218.414062 184.75 C 217.835938 184.988281 217.25 185.1875 216.632812 185.394531 C 215.929688 185.632812 215.199219 185.882812 214.464844 186.199219 L 210.308594 188.003906 C 209.722656 188.261719 209.117188 188.554688 208.535156 188.835938 C 206.53125 189.808594 204.460938 190.8125 202.488281 190.597656 C 202.191406 190.5625 201.914062 190.472656 201.710938 190.34375 C 201.609375 190.277344 201.527344 190.207031 201.46875 190.125 C 201.113281 189.648438 201.277344 188.71875 201.507812 187.789062 C 201.542969 187.640625 201.585938 187.488281 201.625 187.335938 C 202.230469 185.144531 203.230469 183.113281 204.289062 180.96875 C 204.667969 180.195312 205.0625 179.394531 205.433594 178.589844 L 205.546875 178.34375 C 206.410156 176.476562 207.273438 174.585938 208.429688 172.875 C 208.882812 172.203125 209.308594 171.472656 209.757812 170.753906 Z M 200.199219 175.9375 L 196.835938 184.480469 L 194.953125 189.265625 C 194.824219 189.589844 194.472656 190.226562 194.097656 190.902344 C 193.375 192.203125 192.480469 193.820312 191.945312 195.351562 C 191.171875 197.566406 191.367188 199.160156 192.523438 200.085938 C 192.59375 200.140625 192.664062 200.191406 192.738281 200.238281 C 193.214844 200.546875 193.804688 200.695312 194.488281 200.679688 C 196.617188 200.636719 199.578125 198.972656 201.742188 197.753906 C 202.421875 197.375 203.003906 197.046875 203.347656 196.894531 L 208.59375 194.558594 L 216.347656 191.105469 C 217.554688 190.566406 218.839844 190.089844 220.203125 189.582031 C 224.332031 188.042969 228.601562 186.453125 231.4375 182.964844 C 232.71875 181.390625 234.085938 178.90625 233.902344 176.789062 C 233.769531 175.253906 233.453125 173.835938 233.003906 172.371094 C 231.886719 168.738281 228.992188 166.65625 226.433594 164.058594 C 225.167969 162.769531 224.007812 161.238281 222.503906 160.21875 C 221.320312 159.417969 219.703125 159.195312 218.394531 158.648438 C 216.785156 157.976562 214.984375 157.578125 213.238281 157.613281 C 212.585938 157.625 211.953125 157.703125 211.351562 157.84375 C 208.40625 158.535156 206.210938 160.671875 204.820312 164.203125 C 203.28125 168.113281 201.742188 172.023438 200.199219 175.9375 " fill-opacity="1" fill-rule="nonzero"/><path fill="#ffd246" d="M 228.375 205.925781 C 229.546875 205.992188 230.710938 206.09375 231.875 206.207031 C 233.101562 206.246094 234.328125 206.300781 235.554688 206.359375 C 235.550781 206.296875 235.550781 206.230469 235.546875 206.164062 C 235.300781 202.640625 232.769531 198.910156 228.953125 200.921875 C 227.5625 201.652344 226.296875 202.625 225.238281 203.789062 C 224.714844 204.359375 224.234375 205.015625 223.96875 205.730469 C 225.4375 205.78125 226.90625 205.84375 228.375 205.925781 " fill-opacity="1" fill-rule="nonzero"/><path fill="#ffd246" d="M 221.292969 179.027344 C 220.613281 179.589844 219.761719 179.964844 218.890625 180.128906 C 217.105469 180.464844 212.503906 180.234375 211.996094 177.929688 C 211.835938 177.191406 212.046875 176.417969 212.128906 175.6875 C 212.226562 174.804688 212.359375 173.917969 212.667969 173.082031 C 213.4375 171 215.53125 169.40625 217.769531 170.289062 C 219.574219 171 220.464844 172.457031 221.574219 173.90625 C 222.457031 175.058594 223.03125 176.257812 222.359375 177.675781 C 222.109375 178.203125 221.738281 178.65625 221.292969 179.027344 " fill-opacity="1" fill-rule="nonzero"/><path fill="#ffd246" d="M 190.03125 160.8125 C 190.175781 161.371094 190.195312 161.949219 190.066406 162.441406 C 189.871094 163.1875 189.464844 163.851562 189.0625 164.507812 C 188.636719 165.203125 188.207031 165.90625 187.632812 166.480469 C 187.058594 167.058594 186.316406 167.507812 185.503906 167.578125 C 184.390625 167.671875 183.332031 167.046875 182.5 166.296875 C 181.308594 165.21875 179.226562 162.691406 179.679688 160.960938 C 180.199219 158.957031 182.585938 157.980469 184.453125 157.886719 C 185.828125 157.816406 187.695312 158.132812 188.851562 158.960938 C 189.417969 159.367188 189.835938 160.070312 190.03125 160.8125 " fill-opacity="1" fill-rule="nonzero"/><path fill="#ffd246" d="M 157.652344 173.464844 C 158.929688 174.519531 159.441406 176.480469 159.695312 178.042969 C 159.910156 179.34375 159.726562 180.769531 158.902344 181.796875 C 157.515625 183.519531 155.308594 183.328125 153.445312 182.59375 C 152.105469 182.066406 150.46875 181.398438 149.695312 180.097656 C 148.65625 178.351562 150.351562 176.023438 151.410156 174.675781 C 152.105469 173.785156 153.027344 173.03125 154.121094 172.734375 C 155.21875 172.433594 156.449219 172.632812 157.394531 173.273438 C 157.480469 173.332031 157.566406 173.398438 157.652344 173.464844 " fill-opacity="1" fill-rule="nonzero"/><g clip-path="url(#7fd89edffe)"><path fill="#ffd246" d="M 146.476562 206.796875 C 147.410156 206.675781 148.34375 206.5625 149.277344 206.457031 C 148.988281 205.390625 147.988281 204.632812 147.058594 203.988281 C 146.136719 203.347656 145.191406 202.695312 144.117188 202.371094 C 143.445312 202.171875 142.832031 202.140625 142.277344 202.246094 C 140.167969 202.648438 138.960938 205.019531 138.898438 207.296875 C 141.429688 207.234375 143.957031 207.128906 146.476562 206.796875 " fill-opacity="1" fill-rule="nonzero"/></g><g fill="#545454" fill-opacity="1"><g transform="translate(91.91377, 231.928462)"><g><path d="M 2.875 -7.28125 L 2.796875 -7.28125 C 2.742188 -6.664062 2.644531 -5.507812 2.5 -3.8125 C 2.363281 -2.125 2.296875 -1.203125 2.296875 -1.046875 C 2.296875 -0.753906 2.441406 -0.609375 2.734375 -0.609375 L 3.3125 -0.625 L 3.328125 -0.578125 L 3.203125 0.0625 C 3.109375 0.0507812 2.925781 0.0351562 2.65625 0.015625 C 2.382812 0.00390625 2.113281 0 1.84375 0 C 1.613281 0 1.375 0.015625 1.125 0.046875 C 0.875 0.078125 0.710938 0.0976562 0.640625 0.109375 L 0.71875 -0.53125 C 1.007812 -0.570312 1.222656 -0.664062 1.359375 -0.8125 C 1.492188 -0.96875 1.578125 -1.234375 1.609375 -1.609375 C 1.703125 -2.484375 1.828125 -3.664062 1.984375 -5.15625 C 2.140625 -6.65625 2.21875 -7.492188 2.21875 -7.671875 C 2.21875 -7.910156 2.117188 -8.085938 1.921875 -8.203125 C 1.734375 -8.328125 1.429688 -8.40625 1.015625 -8.4375 L 0.96875 -8.5 L 1.078125 -9 C 1.203125 -8.988281 1.441406 -8.972656 1.796875 -8.953125 C 2.148438 -8.929688 2.421875 -8.921875 2.609375 -8.921875 C 2.773438 -8.921875 2.957031 -8.925781 3.15625 -8.9375 C 3.363281 -8.957031 3.5 -8.972656 3.5625 -8.984375 C 3.9375 -7.773438 4.296875 -6.65625 4.640625 -5.625 C 4.992188 -4.59375 5.28125 -3.769531 5.5 -3.15625 C 5.726562 -2.550781 5.867188 -2.175781 5.921875 -2.03125 L 6 -2.03125 C 6.125 -2.375 6.421875 -3.195312 6.890625 -4.5 C 7.359375 -5.800781 7.867188 -7.285156 8.421875 -8.953125 C 8.421875 -8.960938 8.546875 -8.957031 8.796875 -8.9375 L 9.34375 -8.921875 C 9.519531 -8.921875 9.785156 -8.929688 10.140625 -8.953125 C 10.503906 -8.984375 10.742188 -9.003906 10.859375 -9.015625 L 10.890625 -8.953125 L 10.8125 -8.4375 C 10.414062 -8.394531 10.132812 -8.3125 9.96875 -8.1875 C 9.800781 -8.070312 9.71875 -7.898438 9.71875 -7.671875 C 9.71875 -7.460938 9.757812 -6.695312 9.84375 -5.375 C 9.925781 -4.050781 10.003906 -2.910156 10.078125 -1.953125 C 10.117188 -1.566406 10.160156 -1.28125 10.203125 -1.09375 C 10.253906 -0.914062 10.320312 -0.789062 10.40625 -0.71875 C 10.5 -0.644531 10.617188 -0.609375 10.765625 -0.609375 C 10.847656 -0.609375 10.925781 -0.613281 11 -0.625 C 11.070312 -0.632812 11.125 -0.640625 11.15625 -0.640625 L 11.1875 -0.59375 L 11.0625 0.046875 C 10.96875 0.0351562 10.789062 0.0234375 10.53125 0.015625 C 10.269531 0.00390625 10.003906 0 9.734375 0 C 9.472656 0 9.1875 0.015625 8.875 0.046875 C 8.5625 0.078125 8.359375 0.0976562 8.265625 0.109375 L 8.328125 -0.53125 C 8.617188 -0.570312 8.828125 -0.644531 8.953125 -0.75 C 9.085938 -0.863281 9.15625 -1.023438 9.15625 -1.234375 C 9.15625 -1.429688 9.085938 -2.34375 8.953125 -3.96875 C 8.816406 -5.59375 8.722656 -6.695312 8.671875 -7.28125 L 8.609375 -7.28125 L 5.90625 0.171875 L 5.5625 0.265625 Z M 2.875 -7.28125 "/></g></g></g><g fill="#545454" fill-opacity="1"><g transform="translate(105.182476, 231.928462)"><g><path d="M 4.609375 0.046875 L 4.671875 -0.5 C 5.140625 -0.539062 5.460938 -0.597656 5.640625 -0.671875 C 5.828125 -0.742188 5.921875 -0.863281 5.921875 -1.03125 C 5.921875 -1.21875 5.875 -1.441406 5.78125 -1.703125 L 5.328125 -3.234375 C 5.097656 -3.242188 4.613281 -3.25 3.875 -3.25 C 3.425781 -3.25 2.914062 -3.210938 2.34375 -3.140625 L 1.828125 -1.6875 C 1.742188 -1.425781 1.703125 -1.242188 1.703125 -1.140625 C 1.703125 -0.929688 1.765625 -0.78125 1.890625 -0.6875 C 2.023438 -0.601562 2.238281 -0.5625 2.53125 -0.5625 L 3.328125 -0.5625 L 3.359375 -0.5 L 3.28125 0.09375 C 3.164062 0.0820312 2.90625 0.0625 2.5 0.03125 C 2.101562 0.0078125 1.710938 0 1.328125 0 C 0.984375 0 0.664062 0.00390625 0.375 0.015625 C 0.0820312 0.0234375 -0.109375 0.0351562 -0.203125 0.046875 L -0.09375 -0.609375 C 0.164062 -0.640625 0.375 -0.734375 0.53125 -0.890625 C 0.6875 -1.046875 0.84375 -1.316406 1 -1.703125 L 3.734375 -8.859375 L 4.609375 -9.09375 L 4.71875 -9.09375 C 4.78125 -8.875 4.925781 -8.359375 5.15625 -7.546875 C 5.382812 -6.734375 5.660156 -5.769531 5.984375 -4.65625 C 6.316406 -3.539062 6.640625 -2.515625 6.953125 -1.578125 C 7.066406 -1.234375 7.21875 -0.988281 7.40625 -0.84375 C 7.59375 -0.707031 7.890625 -0.625 8.296875 -0.59375 L 8.328125 -0.53125 L 8.234375 0.046875 C 8.117188 0.046875 7.910156 0.0351562 7.609375 0.015625 C 7.316406 0.00390625 7.023438 0 6.734375 0 C 6.285156 0 5.851562 0.015625 5.4375 0.046875 C 5.03125 0.0859375 4.769531 0.117188 4.65625 0.140625 Z M 3.828125 -3.828125 C 4.160156 -3.828125 4.59375 -3.847656 5.125 -3.890625 L 4.015625 -7.5625 L 3.921875 -7.5625 L 2.59375 -3.828125 Z M 3.828125 -3.828125 "/></g></g></g><g fill="#545454" fill-opacity="1"><g transform="translate(114.76621, 231.928462)"><g><path d="M 7.171875 0.21875 C 6.941406 0.21875 6.691406 0.101562 6.421875 -0.125 C 6.160156 -0.363281 5.914062 -0.691406 5.6875 -1.109375 L 4.1875 -3.828125 L 3.03125 -3.828125 L 2.984375 -1.734375 C 2.984375 -1.378906 3.003906 -1.125 3.046875 -0.96875 C 3.097656 -0.820312 3.1875 -0.722656 3.3125 -0.671875 C 3.445312 -0.617188 3.675781 -0.59375 4 -0.59375 L 4.015625 -0.53125 L 3.890625 0.0625 C 3.785156 0.0507812 3.5625 0.0390625 3.21875 0.03125 C 2.882812 0.0195312 2.535156 0.015625 2.171875 0.015625 C 1.847656 0.015625 1.554688 0.0195312 1.296875 0.03125 C 1.046875 0.0390625 0.878906 0.0507812 0.796875 0.0625 L 0.921875 -0.578125 C 1.222656 -0.609375 1.445312 -0.65625 1.59375 -0.71875 C 1.75 -0.789062 1.851562 -0.898438 1.90625 -1.046875 C 1.957031 -1.191406 1.984375 -1.40625 1.984375 -1.6875 L 2 -7.5625 C 2 -7.863281 1.960938 -8.066406 1.890625 -8.171875 C 1.828125 -8.273438 1.691406 -8.328125 1.484375 -8.328125 C 1.390625 -8.328125 1.296875 -8.320312 1.203125 -8.3125 C 1.109375 -8.300781 1.046875 -8.296875 1.015625 -8.296875 L 0.984375 -8.359375 L 1.078125 -8.96875 C 1.191406 -8.957031 1.398438 -8.945312 1.703125 -8.9375 C 2.015625 -8.925781 2.328125 -8.921875 2.640625 -8.921875 C 2.953125 -8.921875 3.28125 -8.925781 3.625 -8.9375 C 3.976562 -8.957031 4.222656 -8.972656 4.359375 -8.984375 C 5.222656 -8.984375 5.90625 -8.785156 6.40625 -8.390625 C 6.914062 -8.003906 7.171875 -7.46875 7.171875 -6.78125 C 7.171875 -6.21875 6.988281 -5.703125 6.625 -5.234375 C 6.269531 -4.773438 5.765625 -4.394531 5.109375 -4.09375 L 6.65625 -1.65625 C 6.925781 -1.207031 7.1875 -0.894531 7.4375 -0.71875 C 7.695312 -0.550781 8.015625 -0.46875 8.390625 -0.46875 L 8.453125 -0.40625 L 8.375 0.0625 Z M 4.5 -4.46875 C 4.5 -4.4375 4.640625 -4.492188 4.921875 -4.640625 C 5.203125 -4.796875 5.453125 -5.023438 5.671875 -5.328125 C 5.898438 -5.640625 6.015625 -6.039062 6.015625 -6.53125 C 6.015625 -7.757812 5.160156 -8.375 3.453125 -8.375 C 3.359375 -8.375 3.289062 -8.351562 3.25 -8.3125 C 3.21875 -8.269531 3.203125 -8.1875 3.203125 -8.0625 C 3.109375 -6.632812 3.0625 -5.484375 3.0625 -4.609375 Z M 4.5 -4.46875 "/></g></g></g><g fill="#545454" fill-opacity="1"><g transform="translate(124.728248, 231.928462)"><g><path d="M 0.875 -0.46875 C 1.3125 -0.5625 1.601562 -0.6875 1.75 -0.84375 C 1.90625 -1.007812 1.984375 -1.289062 1.984375 -1.6875 L 2 -7.5625 C 2 -7.863281 1.960938 -8.066406 1.890625 -8.171875 C 1.828125 -8.273438 1.691406 -8.328125 1.484375 -8.328125 L 0.890625 -8.296875 L 0.875 -8.359375 L 0.96875 -8.96875 C 1.113281 -8.96875 1.226562 -8.960938 1.3125 -8.953125 L 2.640625 -8.921875 C 3.054688 -8.921875 3.59375 -8.960938 4.25 -9.046875 L 4.1875 -8.421875 C 3.800781 -8.378906 3.539062 -8.300781 3.40625 -8.1875 C 3.269531 -8.082031 3.195312 -7.894531 3.1875 -7.625 C 3.125 -6.53125 3.070312 -5.382812 3.03125 -4.1875 C 3 -3 2.984375 -2.125 2.984375 -1.5625 C 2.984375 -1.1875 3.023438 -0.929688 3.109375 -0.796875 C 3.191406 -0.671875 3.359375 -0.609375 3.609375 -0.609375 C 3.765625 -0.609375 4.007812 -0.625 4.34375 -0.65625 L 4.375 -0.609375 L 4.25 0.046875 C 4.113281 0.046875 4.007812 0.0390625 3.9375 0.03125 C 3.28125 0.0078125 2.769531 0 2.40625 0 C 1.945312 0 1.40625 0.0546875 0.78125 0.171875 Z M 0.875 -0.46875 "/></g></g></g><g fill="#545454" fill-opacity="1"><g transform="translate(131.187464, 231.928462)"><g><path d="M 4.609375 0.046875 L 4.671875 -0.5 C 5.140625 -0.539062 5.460938 -0.597656 5.640625 -0.671875 C 5.828125 -0.742188 5.921875 -0.863281 5.921875 -1.03125 C 5.921875 -1.21875 5.875 -1.441406 5.78125 -1.703125 L 5.328125 -3.234375 C 5.097656 -3.242188 4.613281 -3.25 3.875 -3.25 C 3.425781 -3.25 2.914062 -3.210938 2.34375 -3.140625 L 1.828125 -1.6875 C 1.742188 -1.425781 1.703125 -1.242188 1.703125 -1.140625 C 1.703125 -0.929688 1.765625 -0.78125 1.890625 -0.6875 C 2.023438 -0.601562 2.238281 -0.5625 2.53125 -0.5625 L 3.328125 -0.5625 L 3.359375 -0.5 L 3.28125 0.09375 C 3.164062 0.0820312 2.90625 0.0625 2.5 0.03125 C 2.101562 0.0078125 1.710938 0 1.328125 0 C 0.984375 0 0.664062 0.00390625 0.375 0.015625 C 0.0820312 0.0234375 -0.109375 0.0351562 -0.203125 0.046875 L -0.09375 -0.609375 C 0.164062 -0.640625 0.375 -0.734375 0.53125 -0.890625 C 0.6875 -1.046875 0.84375 -1.316406 1 -1.703125 L 3.734375 -8.859375 L 4.609375 -9.09375 L 4.71875 -9.09375 C 4.78125 -8.875 4.925781 -8.359375 5.15625 -7.546875 C 5.382812 -6.734375 5.660156 -5.769531 5.984375 -4.65625 C 6.316406 -3.539062 6.640625 -2.515625 6.953125 -1.578125 C 7.066406 -1.234375 7.21875 -0.988281 7.40625 -0.84375 C 7.59375 -0.707031 7.890625 -0.625 8.296875 -0.59375 L 8.328125 -0.53125 L 8.234375 0.046875 C 8.117188 0.046875 7.910156 0.0351562 7.609375 0.015625 C 7.316406 0.00390625 7.023438 0 6.734375 0 C 6.285156 0 5.851562 0.015625 5.4375 0.046875 C 5.03125 0.0859375 4.769531 0.117188 4.65625 0.140625 Z M 3.828125 -3.828125 C 4.160156 -3.828125 4.59375 -3.847656 5.125 -3.890625 L 4.015625 -7.5625 L 3.921875 -7.5625 L 2.59375 -3.828125 Z M 3.828125 -3.828125 "/></g></g></g><g fill="#545454" fill-opacity="1"><g transform="translate(140.771195, 231.928462)"><g/></g></g><g fill="#545454" fill-opacity="1"><g transform="translate(144.946566, 231.928462)"><g><path d="M 1.03125 -0.5 C 1.394531 -0.5625 1.644531 -0.671875 1.78125 -0.828125 C 1.914062 -0.992188 1.984375 -1.28125 1.984375 -1.6875 L 2 -7.5625 C 2 -7.863281 1.960938 -8.066406 1.890625 -8.171875 C 1.828125 -8.273438 1.691406 -8.328125 1.484375 -8.328125 C 1.390625 -8.328125 1.296875 -8.320312 1.203125 -8.3125 C 1.109375 -8.300781 1.046875 -8.296875 1.015625 -8.296875 L 0.984375 -8.359375 L 1.078125 -8.96875 C 1.191406 -8.957031 1.398438 -8.945312 1.703125 -8.9375 C 2.015625 -8.925781 2.332031 -8.921875 2.65625 -8.921875 C 2.90625 -8.921875 3.191406 -8.9375 3.515625 -8.96875 C 3.835938 -9.007812 4.050781 -9.035156 4.15625 -9.046875 L 4.09375 -8.421875 C 3.78125 -8.390625 3.566406 -8.328125 3.453125 -8.234375 C 3.335938 -8.148438 3.265625 -8.050781 3.234375 -7.9375 C 3.210938 -7.832031 3.191406 -7.5625 3.171875 -7.125 C 3.109375 -6.320312 3.0625 -5.410156 3.03125 -4.390625 C 3.007812 -3.378906 3 -2.484375 3 -1.703125 C 3 -1.367188 3.023438 -1.128906 3.078125 -0.984375 C 3.140625 -0.835938 3.242188 -0.738281 3.390625 -0.6875 C 3.546875 -0.644531 3.8125 -0.625 4.1875 -0.625 C 4.757812 -0.625 5.175781 -0.671875 5.4375 -0.765625 C 5.707031 -0.859375 5.910156 -1.039062 6.046875 -1.3125 C 6.179688 -1.582031 6.304688 -2.019531 6.421875 -2.625 L 7.03125 -2.6875 L 7.078125 -2.625 C 7.046875 -2.46875 6.984375 -2.128906 6.890625 -1.609375 C 6.804688 -1.085938 6.734375 -0.535156 6.671875 0.046875 L 6.59375 0.125 C 6.320312 0.101562 5.765625 0.078125 4.921875 0.046875 C 4.078125 0.015625 3.378906 0 2.828125 0 C 2.390625 0 1.988281 0.015625 1.625 0.046875 C 1.269531 0.0859375 1.046875 0.117188 0.953125 0.140625 Z M 1.03125 -0.5 "/></g></g></g><g fill="#545454" fill-opacity="1"><g transform="translate(153.451428, 231.928462)"><g><path d="M 4.578125 0.171875 C 3.597656 0.171875 2.84375 -0.09375 2.3125 -0.625 C 1.78125 -1.164062 1.515625 -1.929688 1.515625 -2.921875 L 1.515625 -7.5625 C 1.515625 -7.863281 1.476562 -8.066406 1.40625 -8.171875 C 1.332031 -8.273438 1.195312 -8.328125 1 -8.328125 C 0.90625 -8.328125 0.8125 -8.320312 0.71875 -8.3125 C 0.625 -8.300781 0.554688 -8.296875 0.515625 -8.296875 L 0.484375 -8.359375 L 0.59375 -8.96875 C 0.695312 -8.957031 0.90625 -8.945312 1.21875 -8.9375 C 1.539062 -8.925781 1.859375 -8.921875 2.171875 -8.921875 C 2.421875 -8.921875 2.703125 -8.9375 3.015625 -8.96875 C 3.335938 -9.007812 3.546875 -9.035156 3.640625 -9.046875 L 3.59375 -8.421875 C 3.238281 -8.378906 3.003906 -8.300781 2.890625 -8.1875 C 2.773438 -8.082031 2.707031 -7.894531 2.6875 -7.625 L 2.578125 -3.5 C 2.578125 -2.570312 2.773438 -1.859375 3.171875 -1.359375 C 3.578125 -0.867188 4.160156 -0.625 4.921875 -0.625 C 5.679688 -0.625 6.265625 -0.828125 6.671875 -1.234375 C 7.078125 -1.640625 7.28125 -2.226562 7.28125 -3 C 7.269531 -3.75 7.253906 -4.601562 7.234375 -5.5625 C 7.210938 -6.519531 7.195312 -7.1875 7.1875 -7.5625 C 7.164062 -7.894531 7.125 -8.101562 7.0625 -8.1875 C 7.007812 -8.28125 6.878906 -8.328125 6.671875 -8.328125 C 6.554688 -8.328125 6.4375 -8.320312 6.3125 -8.3125 C 6.195312 -8.300781 6.113281 -8.296875 6.0625 -8.296875 L 6.046875 -8.359375 L 6.140625 -8.96875 C 6.253906 -8.957031 6.46875 -8.945312 6.78125 -8.9375 C 7.09375 -8.925781 7.40625 -8.921875 7.71875 -8.921875 C 7.96875 -8.921875 8.234375 -8.9375 8.515625 -8.96875 C 8.804688 -9.007812 8.992188 -9.035156 9.078125 -9.046875 L 9.03125 -8.421875 C 8.75 -8.390625 8.539062 -8.347656 8.40625 -8.296875 C 8.269531 -8.242188 8.175781 -8.164062 8.125 -8.0625 C 8.082031 -7.96875 8.0625 -7.820312 8.0625 -7.625 L 8.0625 -2.921875 C 8.0625 -1.929688 7.753906 -1.164062 7.140625 -0.625 C 6.535156 -0.09375 5.679688 0.171875 4.578125 0.171875 Z M 4.578125 0.171875 "/></g></g></g><g fill="#545454" fill-opacity="1"><g transform="translate(164.394257, 231.928462)"><g><path d="M 0.875 -0.46875 C 1.3125 -0.5625 1.601562 -0.6875 1.75 -0.84375 C 1.90625 -1.007812 1.984375 -1.289062 1.984375 -1.6875 L 2 -7.5625 C 2 -7.863281 1.960938 -8.066406 1.890625 -8.171875 C 1.828125 -8.273438 1.691406 -8.328125 1.484375 -8.328125 L 0.890625 -8.296875 L 0.875 -8.359375 L 0.96875 -8.96875 C 1.113281 -8.96875 1.226562 -8.960938 1.3125 -8.953125 L 2.640625 -8.921875 C 3.054688 -8.921875 3.59375 -8.960938 4.25 -9.046875 L 4.1875 -8.421875 C 3.800781 -8.378906 3.539062 -8.300781 3.40625 -8.1875 C 3.269531 -8.082031 3.195312 -7.894531 3.1875 -7.625 C 3.125 -6.53125 3.070312 -5.382812 3.03125 -4.1875 C 3 -3 2.984375 -2.125 2.984375 -1.5625 C 2.984375 -1.1875 3.023438 -0.929688 3.109375 -0.796875 C 3.191406 -0.671875 3.359375 -0.609375 3.609375 -0.609375 C 3.765625 -0.609375 4.007812 -0.625 4.34375 -0.65625 L 4.375 -0.609375 L 4.25 0.046875 C 4.113281 0.046875 4.007812 0.0390625 3.9375 0.03125 C 3.28125 0.0078125 2.769531 0 2.40625 0 C 1.945312 0 1.40625 0.0546875 0.78125 0.171875 Z M 0.875 -0.46875 "/></g></g></g><g fill="#545454" fill-opacity="1"><g transform="translate(170.853473, 231.928462)"><g><path d="M 3.0625 0.171875 C 2.675781 0.171875 2.316406 0.132812 1.984375 0.0625 C 1.660156 -0.0078125 1.394531 -0.0859375 1.1875 -0.171875 C 0.976562 -0.253906 0.875 -0.300781 0.875 -0.3125 L 0.796875 -0.453125 C 0.804688 -0.503906 0.820312 -0.640625 0.84375 -0.859375 C 0.875 -1.085938 0.898438 -1.378906 0.921875 -1.734375 C 0.953125 -2.097656 0.96875 -2.484375 0.96875 -2.890625 L 1.59375 -2.953125 C 1.59375 -2.253906 1.640625 -1.734375 1.734375 -1.390625 C 1.828125 -1.054688 2 -0.828125 2.25 -0.703125 C 2.507812 -0.578125 2.898438 -0.515625 3.421875 -0.515625 C 4.003906 -0.515625 4.472656 -0.648438 4.828125 -0.921875 C 5.191406 -1.203125 5.375 -1.582031 5.375 -2.0625 C 5.375 -2.34375 5.273438 -2.59375 5.078125 -2.8125 C 4.890625 -3.039062 4.664062 -3.234375 4.40625 -3.390625 C 4.144531 -3.546875 3.753906 -3.757812 3.234375 -4.03125 C 2.753906 -4.289062 2.359375 -4.523438 2.046875 -4.734375 C 1.734375 -4.941406 1.472656 -5.191406 1.265625 -5.484375 C 1.054688 -5.773438 0.953125 -6.109375 0.953125 -6.484375 C 0.953125 -6.972656 1.09375 -7.414062 1.375 -7.8125 C 1.664062 -8.207031 2.054688 -8.519531 2.546875 -8.75 C 3.035156 -8.976562 3.578125 -9.09375 4.171875 -9.09375 C 4.546875 -9.09375 4.890625 -9.066406 5.203125 -9.015625 C 5.523438 -8.960938 5.78125 -8.910156 5.96875 -8.859375 C 6.15625 -8.804688 6.273438 -8.769531 6.328125 -8.75 L 6.359375 -8.65625 C 6.347656 -8.601562 6.320312 -8.472656 6.28125 -8.265625 C 6.25 -8.054688 6.207031 -7.769531 6.15625 -7.40625 C 6.113281 -7.050781 6.082031 -6.679688 6.0625 -6.296875 L 5.515625 -6.234375 L 5.421875 -6.3125 C 5.429688 -6.34375 5.441406 -6.425781 5.453125 -6.5625 C 5.460938 -6.695312 5.46875 -6.851562 5.46875 -7.03125 C 5.46875 -7.53125 5.34375 -7.875 5.09375 -8.0625 C 4.851562 -8.25 4.421875 -8.34375 3.796875 -8.34375 C 3.285156 -8.34375 2.863281 -8.210938 2.53125 -7.953125 C 2.195312 -7.691406 2.03125 -7.375 2.03125 -7 C 2.03125 -6.625 2.191406 -6.296875 2.515625 -6.015625 C 2.835938 -5.742188 3.3125 -5.441406 3.9375 -5.109375 C 4.539062 -4.804688 5 -4.550781 5.3125 -4.34375 C 5.632812 -4.144531 5.914062 -3.894531 6.15625 -3.59375 C 6.40625 -3.300781 6.53125 -2.957031 6.53125 -2.5625 C 6.53125 -2.039062 6.378906 -1.570312 6.078125 -1.15625 C 5.785156 -0.738281 5.378906 -0.410156 4.859375 -0.171875 C 4.335938 0.0546875 3.738281 0.171875 3.0625 0.171875 Z M 3.0625 0.171875 "/></g></g></g><g fill="#545454" fill-opacity="1"><g transform="translate(179.680597, 231.928462)"><g><path d="M 4.609375 0.046875 L 4.671875 -0.5 C 5.140625 -0.539062 5.460938 -0.597656 5.640625 -0.671875 C 5.828125 -0.742188 5.921875 -0.863281 5.921875 -1.03125 C 5.921875 -1.21875 5.875 -1.441406 5.78125 -1.703125 L 5.328125 -3.234375 C 5.097656 -3.242188 4.613281 -3.25 3.875 -3.25 C 3.425781 -3.25 2.914062 -3.210938 2.34375 -3.140625 L 1.828125 -1.6875 C 1.742188 -1.425781 1.703125 -1.242188 1.703125 -1.140625 C 1.703125 -0.929688 1.765625 -0.78125 1.890625 -0.6875 C 2.023438 -0.601562 2.238281 -0.5625 2.53125 -0.5625 L 3.328125 -0.5625 L 3.359375 -0.5 L 3.28125 0.09375 C 3.164062 0.0820312 2.90625 0.0625 2.5 0.03125 C 2.101562 0.0078125 1.710938 0 1.328125 0 C 0.984375 0 0.664062 0.00390625 0.375 0.015625 C 0.0820312 0.0234375 -0.109375 0.0351562 -0.203125 0.046875 L -0.09375 -0.609375 C 0.164062 -0.640625 0.375 -0.734375 0.53125 -0.890625 C 0.6875 -1.046875 0.84375 -1.316406 1 -1.703125 L 3.734375 -8.859375 L 4.609375 -9.09375 L 4.71875 -9.09375 C 4.78125 -8.875 4.925781 -8.359375 5.15625 -7.546875 C 5.382812 -6.734375 5.660156 -5.769531 5.984375 -4.65625 C 6.316406 -3.539062 6.640625 -2.515625 6.953125 -1.578125 C 7.066406 -1.234375 7.21875 -0.988281 7.40625 -0.84375 C 7.59375 -0.707031 7.890625 -0.625 8.296875 -0.59375 L 8.328125 -0.53125 L 8.234375 0.046875 C 8.117188 0.046875 7.910156 0.0351562 7.609375 0.015625 C 7.316406 0.00390625 7.023438 0 6.734375 0 C 6.285156 0 5.851562 0.015625 5.4375 0.046875 C 5.03125 0.0859375 4.769531 0.117188 4.65625 0.140625 Z M 3.828125 -3.828125 C 4.160156 -3.828125 4.59375 -3.847656 5.125 -3.890625 L 4.015625 -7.5625 L 3.921875 -7.5625 L 2.59375 -3.828125 Z M 3.828125 -3.828125 "/></g></g></g><g fill="#545454" fill-opacity="1"><g transform="translate(189.264328, 231.928462)"><g/></g></g><g fill="#545454" fill-opacity="1"><g transform="translate(193.439695, 231.928462)"><g><path d="M 0.890625 -0.46875 C 1.328125 -0.5625 1.617188 -0.6875 1.765625 -0.84375 C 1.910156 -1.007812 1.984375 -1.289062 1.984375 -1.6875 L 2 -7.5625 C 2 -7.863281 1.960938 -8.066406 1.890625 -8.171875 C 1.828125 -8.273438 1.691406 -8.328125 1.484375 -8.328125 C 1.390625 -8.328125 1.296875 -8.320312 1.203125 -8.3125 C 1.109375 -8.300781 1.046875 -8.296875 1.015625 -8.296875 L 0.984375 -8.359375 L 1.078125 -8.96875 C 1.203125 -8.957031 1.445312 -8.945312 1.8125 -8.9375 C 2.1875 -8.925781 2.59375 -8.921875 3.03125 -8.921875 C 4.863281 -8.921875 6.175781 -8.976562 6.96875 -9.09375 L 7.015625 -9.015625 C 7.003906 -8.953125 6.976562 -8.816406 6.9375 -8.609375 C 6.894531 -8.410156 6.847656 -8.128906 6.796875 -7.765625 C 6.753906 -7.398438 6.71875 -7.023438 6.6875 -6.640625 L 6.015625 -6.59375 C 6.015625 -6.632812 6.019531 -6.71875 6.03125 -6.84375 C 6.039062 -6.976562 6.046875 -7.109375 6.046875 -7.234375 C 6.046875 -7.554688 6.003906 -7.78125 5.921875 -7.90625 C 5.835938 -8.03125 5.675781 -8.113281 5.4375 -8.15625 C 5.195312 -8.207031 4.769531 -8.234375 4.15625 -8.234375 C 3.832031 -8.234375 3.609375 -8.222656 3.484375 -8.203125 C 3.367188 -8.179688 3.289062 -8.132812 3.25 -8.0625 C 3.21875 -7.988281 3.195312 -7.863281 3.1875 -7.6875 L 3.0625 -4.71875 L 4.515625 -4.703125 C 4.691406 -4.703125 4.953125 -4.722656 5.296875 -4.765625 C 5.640625 -4.804688 5.867188 -4.835938 5.984375 -4.859375 L 6.046875 -4.796875 L 5.84375 -3.953125 C 5.71875 -3.960938 5.488281 -3.972656 5.15625 -3.984375 C 4.832031 -3.992188 4.488281 -4 4.125 -4 C 3.78125 -4 3.421875 -3.960938 3.046875 -3.890625 L 2.984375 -1.5625 C 2.984375 -1.1875 3.023438 -0.929688 3.109375 -0.796875 C 3.191406 -0.671875 3.359375 -0.609375 3.609375 -0.609375 C 3.785156 -0.609375 3.972656 -0.613281 4.171875 -0.625 C 4.378906 -0.644531 4.519531 -0.65625 4.59375 -0.65625 L 4.625 -0.609375 L 4.5 0.0625 C 4.351562 0.0507812 4.078125 0.0351562 3.671875 0.015625 C 3.265625 0.00390625 2.84375 0 2.40625 0 C 2.113281 0 1.800781 0.0195312 1.46875 0.0625 C 1.132812 0.113281 0.914062 0.148438 0.8125 0.171875 Z M 0.890625 -0.46875 "/></g></g></g><g fill="#545454" fill-opacity="1"><g transform="translate(202.014617, 231.928462)"><g><path d="M 7.453125 -2.34375 C 7.296875 -1.582031 7.171875 -0.796875 7.078125 0.015625 L 7.015625 0.09375 C 5.046875 0.03125 3.628906 0 2.765625 0 C 2.066406 0 1.414062 0.046875 0.8125 0.140625 L 0.890625 -0.5 C 1.316406 -0.5625 1.601562 -0.671875 1.75 -0.828125 C 1.90625 -0.992188 1.984375 -1.28125 1.984375 -1.6875 L 2 -7.5625 C 2 -7.863281 1.960938 -8.066406 1.890625 -8.171875 C 1.828125 -8.273438 1.691406 -8.328125 1.484375 -8.328125 L 1.015625 -8.296875 L 0.984375 -8.359375 L 1.078125 -8.96875 C 2.035156 -8.9375 2.6875 -8.921875 3.03125 -8.921875 C 4.132812 -8.921875 4.992188 -8.929688 5.609375 -8.953125 C 6.234375 -8.984375 6.773438 -9.03125 7.234375 -9.09375 L 7.28125 -9.015625 C 7.101562 -8.273438 6.992188 -7.5 6.953125 -6.6875 L 6.28125 -6.625 L 6.3125 -7.234375 C 6.3125 -7.554688 6.269531 -7.78125 6.1875 -7.90625 C 6.101562 -8.03125 5.921875 -8.113281 5.640625 -8.15625 C 5.359375 -8.207031 4.863281 -8.234375 4.15625 -8.234375 C 3.832031 -8.234375 3.609375 -8.222656 3.484375 -8.203125 C 3.367188 -8.179688 3.289062 -8.132812 3.25 -8.0625 C 3.21875 -7.988281 3.195312 -7.863281 3.1875 -7.6875 L 3.0625 -4.96875 L 4.515625 -4.953125 C 4.878906 -4.953125 5.445312 -5.003906 6.21875 -5.109375 L 6.28125 -5.03125 L 6.078125 -4.203125 C 5.046875 -4.234375 4.394531 -4.25 4.125 -4.25 C 3.8125 -4.25 3.453125 -4.21875 3.046875 -4.15625 L 2.984375 -1.46875 C 2.984375 -1.195312 3.003906 -1.007812 3.046875 -0.90625 C 3.097656 -0.800781 3.195312 -0.726562 3.34375 -0.6875 C 3.488281 -0.644531 3.738281 -0.625 4.09375 -0.625 C 4.875 -0.625 5.429688 -0.660156 5.765625 -0.734375 C 6.097656 -0.816406 6.332031 -0.96875 6.46875 -1.1875 C 6.613281 -1.414062 6.722656 -1.800781 6.796875 -2.34375 L 7.421875 -2.40625 Z M 7.453125 -2.34375 "/></g></g></g><g fill="#545454" fill-opacity="1"><g transform="translate(211.696427, 231.928462)"><g><path d="M 7.171875 0.21875 C 6.941406 0.21875 6.691406 0.101562 6.421875 -0.125 C 6.160156 -0.363281 5.914062 -0.691406 5.6875 -1.109375 L 4.1875 -3.828125 L 3.03125 -3.828125 L 2.984375 -1.734375 C 2.984375 -1.378906 3.003906 -1.125 3.046875 -0.96875 C 3.097656 -0.820312 3.1875 -0.722656 3.3125 -0.671875 C 3.445312 -0.617188 3.675781 -0.59375 4 -0.59375 L 4.015625 -0.53125 L 3.890625 0.0625 C 3.785156 0.0507812 3.5625 0.0390625 3.21875 0.03125 C 2.882812 0.0195312 2.535156 0.015625 2.171875 0.015625 C 1.847656 0.015625 1.554688 0.0195312 1.296875 0.03125 C 1.046875 0.0390625 0.878906 0.0507812 0.796875 0.0625 L 0.921875 -0.578125 C 1.222656 -0.609375 1.445312 -0.65625 1.59375 -0.71875 C 1.75 -0.789062 1.851562 -0.898438 1.90625 -1.046875 C 1.957031 -1.191406 1.984375 -1.40625 1.984375 -1.6875 L 2 -7.5625 C 2 -7.863281 1.960938 -8.066406 1.890625 -8.171875 C 1.828125 -8.273438 1.691406 -8.328125 1.484375 -8.328125 C 1.390625 -8.328125 1.296875 -8.320312 1.203125 -8.3125 C 1.109375 -8.300781 1.046875 -8.296875 1.015625 -8.296875 L 0.984375 -8.359375 L 1.078125 -8.96875 C 1.191406 -8.957031 1.398438 -8.945312 1.703125 -8.9375 C 2.015625 -8.925781 2.328125 -8.921875 2.640625 -8.921875 C 2.953125 -8.921875 3.28125 -8.925781 3.625 -8.9375 C 3.976562 -8.957031 4.222656 -8.972656 4.359375 -8.984375 C 5.222656 -8.984375 5.90625 -8.785156 6.40625 -8.390625 C 6.914062 -8.003906 7.171875 -7.46875 7.171875 -6.78125 C 7.171875 -6.21875 6.988281 -5.703125 6.625 -5.234375 C 6.269531 -4.773438 5.765625 -4.394531 5.109375 -4.09375 L 6.65625 -1.65625 C 6.925781 -1.207031 7.1875 -0.894531 7.4375 -0.71875 C 7.695312 -0.550781 8.015625 -0.46875 8.390625 -0.46875 L 8.453125 -0.40625 L 8.375 0.0625 Z M 4.5 -4.46875 C 4.5 -4.4375 4.640625 -4.492188 4.921875 -4.640625 C 5.203125 -4.796875 5.453125 -5.023438 5.671875 -5.328125 C 5.898438 -5.640625 6.015625 -6.039062 6.015625 -6.53125 C 6.015625 -7.757812 5.160156 -8.375 3.453125 -8.375 C 3.359375 -8.375 3.289062 -8.351562 3.25 -8.3125 C 3.21875 -8.269531 3.203125 -8.1875 3.203125 -8.0625 C 3.109375 -6.632812 3.0625 -5.484375 3.0625 -4.609375 Z M 4.5 -4.46875 "/></g></g></g><g fill="#545454" fill-opacity="1"><g transform="translate(221.65847, 231.928462)"><g><path d="M 7.984375 0.5625 C 7.171875 -0.695312 6.378906 -1.898438 5.609375 -3.046875 C 4.835938 -4.191406 4.203125 -5.113281 3.703125 -5.8125 C 3.210938 -6.519531 2.90625 -6.96875 2.78125 -7.15625 L 2.703125 -7.15625 L 2.640625 -1.171875 C 2.640625 -0.972656 2.671875 -0.828125 2.734375 -0.734375 C 2.796875 -0.648438 2.90625 -0.609375 3.0625 -0.609375 L 3.78125 -0.625 L 3.8125 -0.578125 L 3.6875 0.0625 C 3.582031 0.0507812 3.367188 0.0351562 3.046875 0.015625 C 2.734375 0.00390625 2.453125 0 2.203125 0 C 1.960938 0 1.703125 0.015625 1.421875 0.046875 C 1.148438 0.078125 0.972656 0.0976562 0.890625 0.109375 L 0.96875 -0.53125 C 1.257812 -0.570312 1.472656 -0.660156 1.609375 -0.796875 C 1.753906 -0.929688 1.832031 -1.140625 1.84375 -1.421875 L 2.015625 -7.546875 C 2.015625 -7.828125 1.925781 -8.03125 1.75 -8.15625 C 1.582031 -8.28125 1.265625 -8.363281 0.796875 -8.40625 L 0.75 -8.484375 L 0.875 -9 C 0.957031 -8.988281 1.140625 -8.972656 1.421875 -8.953125 C 1.703125 -8.929688 1.921875 -8.921875 2.078125 -8.921875 C 2.273438 -8.921875 2.460938 -8.925781 2.640625 -8.9375 C 2.828125 -8.957031 2.953125 -8.972656 3.015625 -8.984375 C 3.703125 -7.910156 4.394531 -6.859375 5.09375 -5.828125 C 5.789062 -4.796875 6.375 -3.945312 6.84375 -3.28125 C 7.3125 -2.625 7.601562 -2.207031 7.71875 -2.03125 L 7.796875 -2.03125 L 7.796875 -7.703125 C 7.796875 -8.109375 7.640625 -8.3125 7.328125 -8.3125 L 6.796875 -8.296875 L 6.765625 -8.359375 L 6.890625 -8.984375 C 6.984375 -8.972656 7.160156 -8.957031 7.421875 -8.9375 C 7.691406 -8.925781 7.960938 -8.921875 8.234375 -8.921875 C 8.472656 -8.921875 8.738281 -8.9375 9.03125 -8.96875 C 9.320312 -9.007812 9.515625 -9.035156 9.609375 -9.046875 L 9.546875 -8.390625 C 9.210938 -8.347656 8.972656 -8.257812 8.828125 -8.125 C 8.679688 -7.988281 8.601562 -7.785156 8.59375 -7.515625 L 8.390625 0.359375 Z M 7.984375 0.5625 "/></g></g></g><g fill="#545454" fill-opacity="1"><g transform="translate(233.133735, 231.928462)"><g><path d="M 4.609375 0.046875 L 4.671875 -0.5 C 5.140625 -0.539062 5.460938 -0.597656 5.640625 -0.671875 C 5.828125 -0.742188 5.921875 -0.863281 5.921875 -1.03125 C 5.921875 -1.21875 5.875 -1.441406 5.78125 -1.703125 L 5.328125 -3.234375 C 5.097656 -3.242188 4.613281 -3.25 3.875 -3.25 C 3.425781 -3.25 2.914062 -3.210938 2.34375 -3.140625 L 1.828125 -1.6875 C 1.742188 -1.425781 1.703125 -1.242188 1.703125 -1.140625 C 1.703125 -0.929688 1.765625 -0.78125 1.890625 -0.6875 C 2.023438 -0.601562 2.238281 -0.5625 2.53125 -0.5625 L 3.328125 -0.5625 L 3.359375 -0.5 L 3.28125 0.09375 C 3.164062 0.0820312 2.90625 0.0625 2.5 0.03125 C 2.101562 0.0078125 1.710938 0 1.328125 0 C 0.984375 0 0.664062 0.00390625 0.375 0.015625 C 0.0820312 0.0234375 -0.109375 0.0351562 -0.203125 0.046875 L -0.09375 -0.609375 C 0.164062 -0.640625 0.375 -0.734375 0.53125 -0.890625 C 0.6875 -1.046875 0.84375 -1.316406 1 -1.703125 L 3.734375 -8.859375 L 4.609375 -9.09375 L 4.71875 -9.09375 C 4.78125 -8.875 4.925781 -8.359375 5.15625 -7.546875 C 5.382812 -6.734375 5.660156 -5.769531 5.984375 -4.65625 C 6.316406 -3.539062 6.640625 -2.515625 6.953125 -1.578125 C 7.066406 -1.234375 7.21875 -0.988281 7.40625 -0.84375 C 7.59375 -0.707031 7.890625 -0.625 8.296875 -0.59375 L 8.328125 -0.53125 L 8.234375 0.046875 C 8.117188 0.046875 7.910156 0.0351562 7.609375 0.015625 C 7.316406 0.00390625 7.023438 0 6.734375 0 C 6.285156 0 5.851562 0.015625 5.4375 0.046875 C 5.03125 0.0859375 4.769531 0.117188 4.65625 0.140625 Z M 3.828125 -3.828125 C 4.160156 -3.828125 4.59375 -3.847656 5.125 -3.890625 L 4.015625 -7.5625 L 3.921875 -7.5625 L 2.59375 -3.828125 Z M 3.375 -9.921875 L 3.28125 -10.265625 C 3.832031 -10.546875 4.390625 -10.84375 4.953125 -11.15625 C 5.523438 -11.476562 5.898438 -11.6875 6.078125 -11.78125 L 6.203125 -11.703125 L 6.421875 -11.03125 L 6.359375 -10.890625 C 6.203125 -10.835938 5.835938 -10.707031 5.265625 -10.5 C 4.691406 -10.300781 4.097656 -10.085938 3.484375 -9.859375 Z M 3.375 -9.921875 "/></g></g></g><g fill="#545454" fill-opacity="1"><g transform="translate(242.717474, 231.928462)"><g><path d="M 7.984375 0.5625 C 7.171875 -0.695312 6.378906 -1.898438 5.609375 -3.046875 C 4.835938 -4.191406 4.203125 -5.113281 3.703125 -5.8125 C 3.210938 -6.519531 2.90625 -6.96875 2.78125 -7.15625 L 2.703125 -7.15625 L 2.640625 -1.171875 C 2.640625 -0.972656 2.671875 -0.828125 2.734375 -0.734375 C 2.796875 -0.648438 2.90625 -0.609375 3.0625 -0.609375 L 3.78125 -0.625 L 3.8125 -0.578125 L 3.6875 0.0625 C 3.582031 0.0507812 3.367188 0.0351562 3.046875 0.015625 C 2.734375 0.00390625 2.453125 0 2.203125 0 C 1.960938 0 1.703125 0.015625 1.421875 0.046875 C 1.148438 0.078125 0.972656 0.0976562 0.890625 0.109375 L 0.96875 -0.53125 C 1.257812 -0.570312 1.472656 -0.660156 1.609375 -0.796875 C 1.753906 -0.929688 1.832031 -1.140625 1.84375 -1.421875 L 2.015625 -7.546875 C 2.015625 -7.828125 1.925781 -8.03125 1.75 -8.15625 C 1.582031 -8.28125 1.265625 -8.363281 0.796875 -8.40625 L 0.75 -8.484375 L 0.875 -9 C 0.957031 -8.988281 1.140625 -8.972656 1.421875 -8.953125 C 1.703125 -8.929688 1.921875 -8.921875 2.078125 -8.921875 C 2.273438 -8.921875 2.460938 -8.925781 2.640625 -8.9375 C 2.828125 -8.957031 2.953125 -8.972656 3.015625 -8.984375 C 3.703125 -7.910156 4.394531 -6.859375 5.09375 -5.828125 C 5.789062 -4.796875 6.375 -3.945312 6.84375 -3.28125 C 7.3125 -2.625 7.601562 -2.207031 7.71875 -2.03125 L 7.796875 -2.03125 L 7.796875 -7.703125 C 7.796875 -8.109375 7.640625 -8.3125 7.328125 -8.3125 L 6.796875 -8.296875 L 6.765625 -8.359375 L 6.890625 -8.984375 C 6.984375 -8.972656 7.160156 -8.957031 7.421875 -8.9375 C 7.691406 -8.925781 7.960938 -8.921875 8.234375 -8.921875 C 8.472656 -8.921875 8.738281 -8.9375 9.03125 -8.96875 C 9.320312 -9.007812 9.515625 -9.035156 9.609375 -9.046875 L 9.546875 -8.390625 C 9.210938 -8.347656 8.972656 -8.257812 8.828125 -8.125 C 8.679688 -7.988281 8.601562 -7.785156 8.59375 -7.515625 L 8.390625 0.359375 Z M 7.984375 0.5625 "/></g></g></g><g fill="#545454" fill-opacity="1"><g transform="translate(254.192739, 231.928462)"><g><path d="M 4.4375 0.171875 C 4.300781 0.148438 4.003906 0.113281 3.546875 0.0625 C 3.097656 0.0195312 2.722656 0 2.421875 0 C 2.128906 0 1.8125 0.0195312 1.46875 0.0625 C 1.132812 0.113281 0.914062 0.148438 0.8125 0.171875 L 0.890625 -0.46875 C 1.328125 -0.5625 1.617188 -0.6875 1.765625 -0.84375 C 1.910156 -1.007812 1.984375 -1.289062 1.984375 -1.6875 L 2 -7.5625 C 2 -7.863281 1.960938 -8.066406 1.890625 -8.171875 C 1.828125 -8.273438 1.691406 -8.328125 1.484375 -8.328125 C 1.390625 -8.328125 1.296875 -8.320312 1.203125 -8.3125 C 1.109375 -8.300781 1.046875 -8.296875 1.015625 -8.296875 L 0.984375 -8.359375 L 1.078125 -8.96875 C 1.179688 -8.957031 1.378906 -8.945312 1.671875 -8.9375 C 1.960938 -8.925781 2.253906 -8.921875 2.546875 -8.921875 C 2.953125 -8.921875 3.367188 -8.925781 3.796875 -8.9375 C 4.222656 -8.957031 4.519531 -8.972656 4.6875 -8.984375 C 5.582031 -8.984375 6.378906 -8.804688 7.078125 -8.453125 C 7.773438 -8.109375 8.316406 -7.617188 8.703125 -6.984375 C 9.097656 -6.347656 9.296875 -5.617188 9.296875 -4.796875 C 9.296875 -3.878906 9.078125 -3.039062 8.640625 -2.28125 C 8.210938 -1.53125 7.628906 -0.929688 6.890625 -0.484375 C 6.148438 -0.046875 5.332031 0.171875 4.4375 0.171875 Z M 3.71875 -8.296875 C 3.519531 -8.296875 3.382812 -8.273438 3.3125 -8.234375 C 3.25 -8.191406 3.210938 -8.109375 3.203125 -7.984375 C 3.066406 -4.390625 3 -2.34375 3 -1.84375 C 3 -1.476562 3.046875 -1.207031 3.140625 -1.03125 C 3.242188 -0.851562 3.414062 -0.726562 3.65625 -0.65625 C 3.90625 -0.582031 4.273438 -0.546875 4.765625 -0.546875 C 5.773438 -0.546875 6.566406 -0.894531 7.140625 -1.59375 C 7.722656 -2.289062 8.015625 -3.242188 8.015625 -4.453125 C 8.015625 -5.691406 7.640625 -6.640625 6.890625 -7.296875 C 6.148438 -7.960938 5.09375 -8.296875 3.71875 -8.296875 Z M 3.71875 -8.296875 "/></g></g></g><g fill="#545454" fill-opacity="1"><g transform="translate(265.443824, 231.928462)"><g><path d="M 7.453125 -2.34375 C 7.296875 -1.582031 7.171875 -0.796875 7.078125 0.015625 L 7.015625 0.09375 C 5.046875 0.03125 3.628906 0 2.765625 0 C 2.066406 0 1.414062 0.046875 0.8125 0.140625 L 0.890625 -0.5 C 1.316406 -0.5625 1.601562 -0.671875 1.75 -0.828125 C 1.90625 -0.992188 1.984375 -1.28125 1.984375 -1.6875 L 2 -7.5625 C 2 -7.863281 1.960938 -8.066406 1.890625 -8.171875 C 1.828125 -8.273438 1.691406 -8.328125 1.484375 -8.328125 L 1.015625 -8.296875 L 0.984375 -8.359375 L 1.078125 -8.96875 C 2.035156 -8.9375 2.6875 -8.921875 3.03125 -8.921875 C 4.132812 -8.921875 4.992188 -8.929688 5.609375 -8.953125 C 6.234375 -8.984375 6.773438 -9.03125 7.234375 -9.09375 L 7.28125 -9.015625 C 7.101562 -8.273438 6.992188 -7.5 6.953125 -6.6875 L 6.28125 -6.625 L 6.3125 -7.234375 C 6.3125 -7.554688 6.269531 -7.78125 6.1875 -7.90625 C 6.101562 -8.03125 5.921875 -8.113281 5.640625 -8.15625 C 5.359375 -8.207031 4.863281 -8.234375 4.15625 -8.234375 C 3.832031 -8.234375 3.609375 -8.222656 3.484375 -8.203125 C 3.367188 -8.179688 3.289062 -8.132812 3.25 -8.0625 C 3.21875 -7.988281 3.195312 -7.863281 3.1875 -7.6875 L 3.0625 -4.96875 L 4.515625 -4.953125 C 4.878906 -4.953125 5.445312 -5.003906 6.21875 -5.109375 L 6.28125 -5.03125 L 6.078125 -4.203125 C 5.046875 -4.234375 4.394531 -4.25 4.125 -4.25 C 3.8125 -4.25 3.453125 -4.21875 3.046875 -4.15625 L 2.984375 -1.46875 C 2.984375 -1.195312 3.003906 -1.007812 3.046875 -0.90625 C 3.097656 -0.800781 3.195312 -0.726562 3.34375 -0.6875 C 3.488281 -0.644531 3.738281 -0.625 4.09375 -0.625 C 4.875 -0.625 5.429688 -0.660156 5.765625 -0.734375 C 6.097656 -0.816406 6.332031 -0.96875 6.46875 -1.1875 C 6.613281 -1.414062 6.722656 -1.800781 6.796875 -2.34375 L 7.421875 -2.40625 Z M 7.453125 -2.34375 "/></g></g></g><g fill="#545454" fill-opacity="1"><g transform="translate(275.125634, 231.928462)"><g><path d="M 0.46875 -0.40625 L 5.703125 -8.3125 L 3.28125 -8.234375 C 2.84375 -8.210938 2.492188 -8.140625 2.234375 -8.015625 C 1.984375 -7.890625 1.789062 -7.691406 1.65625 -7.421875 C 1.53125 -7.148438 1.441406 -6.773438 1.390625 -6.296875 L 0.734375 -6.234375 C 0.742188 -6.304688 0.765625 -6.472656 0.796875 -6.734375 C 0.835938 -6.992188 0.875 -7.332031 0.90625 -7.75 C 0.945312 -8.175781 0.972656 -8.582031 0.984375 -8.96875 L 1.125 -9.09375 L 3.578125 -8.9375 L 7.1875 -8.84375 L 7.34375 -8.4375 C 5.5625 -6.0625 3.757812 -3.4375 1.9375 -0.5625 L 4.78125 -0.65625 C 5.269531 -0.664062 5.660156 -0.859375 5.953125 -1.234375 C 6.253906 -1.609375 6.476562 -2.191406 6.625 -2.984375 L 7.28125 -3.0625 C 7.269531 -2.96875 7.242188 -2.785156 7.203125 -2.515625 C 7.160156 -2.253906 7.109375 -1.898438 7.046875 -1.453125 C 6.992188 -1.003906 6.957031 -0.582031 6.9375 -0.1875 L 6.734375 0.046875 L 1.65625 -0.046875 L 0.671875 0.046875 Z M 0.46875 -0.40625 "/></g></g></g></svg>