<svg xmlns="http://www.w3.org/2000/svg" xmlns:xlink="http://www.w3.org/1999/xlink" width="1000" zoomAndPan="magnify" viewBox="0 0 375 374.999991" height="1000" preserveAspectRatio="xMidYMid meet" version="1.0"><defs><clipPath id="9c330f5c31"><path d="M 125 158 L 249 158 L 249 221.925781 L 125 221.925781 Z M 125 158 " clip-rule="nonzero"/></clipPath><clipPath id="190cedd4b3"><path d="M 122.429688 153 L 252.929688 153 L 252.929688 221.925781 L 122.429688 221.925781 Z M 122.429688 153 " clip-rule="nonzero"/></clipPath><clipPath id="52ad858745"><path d="M 125 156 L 250 156 L 250 221.925781 L 125 221.925781 Z M 125 156 " clip-rule="nonzero"/></clipPath><clipPath id="f145246aed"><path d="M 131 203 L 178 203 L 178 221.925781 L 131 221.925781 Z M 131 203 " clip-rule="nonzero"/></clipPath><clipPath id="b23af58ed5"><path d="M 130 202 L 182 202 L 182 221.925781 L 130 221.925781 Z M 130 202 " clip-rule="nonzero"/></clipPath><clipPath id="9de52d0409"><path d="M 138 216 L 150 216 L 150 221.925781 L 138 221.925781 Z M 138 216 " clip-rule="nonzero"/></clipPath></defs><g clip-path="url(#9c330f5c31)"><path fill="#ffffff" d="M 128.480469 201.046875 C 131.367188 191.734375 136.722656 183.246094 143.699219 176.453125 C 155.777344 164.699219 171.910156 158.199219 188.636719 158.191406 C 197.265625 158.191406 205.808594 159.964844 213.640625 163.613281 C 224.277344 168.566406 233.550781 176.53125 239.726562 186.539062 C 241.554688 189.503906 243.105469 192.636719 244.371094 195.886719 C 247.34375 203.507812 248.707031 211.890625 248.46875 220.261719 C 248.148438 220.335938 247.824219 220.402344 247.503906 220.453125 C 247 220.539062 246.488281 220.605469 245.980469 220.664062 C 244 220.757812 242.007812 220.695312 240.039062 220.597656 C 237.316406 220.457031 234.601562 220.285156 231.875 220.207031 C 230.714844 220.089844 229.546875 219.992188 228.375 219.925781 C 222.953125 219.617188 217.515625 219.59375 212.089844 219.367188 C 209.390625 219.253906 206.683594 218.941406 203.976562 218.996094 C 203.714844 219 203.453125 219.007812 203.191406 219.019531 C 201.71875 218.894531 200.242188 218.796875 198.757812 218.757812 C 196.265625 218.6875 193.769531 218.6875 191.273438 218.671875 C 188.738281 218.65625 186.203125 218.625 183.667969 218.488281 C 183.414062 218.476562 183.160156 218.460938 182.90625 218.445312 C 173.882812 217.886719 164.835938 218.65625 155.878906 219.808594 C 152.734375 220.0625 149.601562 220.386719 146.476562 220.796875 C 141.496094 221.449219 136.480469 221.214844 131.480469 221.558594 C 129.757812 221.675781 127.882812 221.90625 126.058594 221.867188 C 125.617188 214.855469 126.394531 207.761719 128.480469 201.046875 " fill-opacity="1" fill-rule="nonzero"/></g><g clip-path="url(#190cedd4b3)"><path fill="#ffd246" d="M 122.101562 219.9375 C 122.144531 220.445312 122.507812 220.742188 122.917969 220.996094 C 123.691406 221.46875 124.882812 221.785156 125.8125 221.855469 C 125.8125 221.855469 126.164062 221.84375 126.34375 221.804688 C 126.140625 218.628906 126.191406 215.5 126.496094 212.304688 C 126.691406 210.238281 127.636719 208.230469 128.292969 206.253906 C 129.042969 203.992188 129.796875 201.730469 130.546875 199.46875 C 131.03125 198.011719 131.515625 196.554688 132.042969 195.109375 C 132.71875 193.277344 133.304688 191.941406 134.628906 190.574219 C 136.078125 189.074219 136.503906 186.757812 137.417969 184.941406 C 138.609375 182.585938 140.511719 180.6875 142.378906 178.828125 C 143.488281 177.730469 144.816406 176.667969 145.71875 175.390625 C 146.476562 174.320312 147.089844 173.59375 148.167969 172.777344 C 150.75 170.820312 153.472656 169.042969 156.304688 167.46875 C 159.167969 165.875 162.140625 164.488281 165.109375 163.101562 C 166.859375 162.28125 168.613281 161.476562 170.359375 160.648438 C 171.90625 159.914062 173.5 159.601562 175.164062 159.171875 C 176.933594 158.71875 178.761719 158.25 180.609375 157.996094 C 183.328125 157.625 186.199219 157.675781 188.972656 157.730469 C 189.714844 157.742188 190.480469 157.757812 191.226562 157.761719 C 195.316406 157.792969 199.253906 158.28125 202.929688 159.210938 C 207.078125 160.257812 211.152344 161.765625 215.039062 163.691406 C 217.085938 164.707031 219.097656 165.847656 221.019531 167.082031 C 226.421875 170.550781 231.183594 174.773438 235.175781 179.636719 C 235.71875 180.300781 236.257812 180.984375 236.773438 181.671875 C 237.136719 182.15625 237.5 182.667969 237.855469 183.183594 C 240.742188 187.394531 243.128906 192.246094 244.941406 197.605469 C 246.429688 202 248.066406 207.148438 248.621094 212.628906 C 248.863281 215.007812 248.945312 217.398438 248.875 219.777344 C 248.871094 219.957031 249.042969 220.085938 249.210938 220.03125 C 249.5 219.9375 249.875 219.824219 249.933594 219.800781 C 250.613281 219.523438 251.261719 219.160156 251.820312 218.679688 C 252.339844 218.230469 252.867188 217.566406 252.90625 216.84375 C 252.925781 216.484375 252.910156 216.109375 252.898438 215.742188 C 252.851562 214.234375 252.738281 212.730469 252.53125 211.238281 C 251.234375 201.78125 247.949219 192.605469 242.957031 184.472656 C 242.136719 183.128906 241.257812 181.804688 240.164062 180.671875 C 239.382812 179.867188 238.496094 179.160156 237.789062 178.285156 C 237.058594 177.378906 236.546875 176.320312 235.933594 175.328125 C 232.9375 170.472656 227.53125 166.613281 222.835938 163.507812 C 217.382812 159.894531 211.320312 157.191406 204.980469 155.570312 C 201.359375 154.644531 197.65625 154.066406 193.949219 153.601562 C 191.800781 153.328125 189.644531 153.09375 187.480469 153.144531 C 185.363281 153.191406 183.265625 153.515625 181.179688 153.871094 C 173.882812 155.113281 166.585938 156.785156 159.894531 159.949219 C 157.550781 161.054688 155.296875 162.339844 153.113281 163.738281 C 144.910156 168.996094 138.378906 175.867188 133.058594 184.011719 C 131.113281 186.988281 129.421875 190.132812 127.992188 193.390625 C 126.535156 196.714844 125.191406 199.816406 124.265625 203.082031 C 123.058594 207.335938 123.085938 211.6875 122.4375 216.019531 C 122.394531 216.296875 122.355469 216.574219 122.316406 216.847656 C 122.222656 217.539062 122.136719 218.230469 122.066406 218.921875 C 122.082031 219.261719 122.074219 219.597656 122.101562 219.9375 " fill-opacity="1" fill-rule="nonzero"/></g><g clip-path="url(#52ad858745)"><path fill="#ffd246" d="M 125.8125 221.855469 C 125.828125 221.855469 125.875 221.863281 125.882812 221.863281 C 126.496094 221.882812 127.117188 221.871094 127.734375 221.839844 C 127.734375 221.71875 127.734375 221.597656 127.734375 221.476562 C 127.734375 220.882812 127.710938 220.296875 127.691406 219.726562 C 127.640625 218.171875 127.589844 216.703125 127.957031 215.410156 C 128.175781 214.628906 128.335938 213.226562 128.585938 210.996094 C 128.878906 208.316406 129.019531 204.859375 130.773438 202.636719 C 131.632812 201.546875 132.695312 200.644531 133.5 199.511719 C 134.082031 198.695312 134.667969 197.867188 135.066406 196.945312 C 135.355469 196.269531 135.539062 195.550781 135.722656 194.835938 C 135.96875 193.875 136.296875 192.90625 136.414062 191.921875 C 136.53125 190.949219 136.542969 189.964844 136.949219 189.050781 C 137.457031 187.90625 138.378906 186.945312 138.921875 185.800781 C 139.238281 185.109375 139.539062 184.457031 139.871094 183.980469 C 140.765625 182.695312 141.722656 181.570312 142.8125 180.472656 C 143.875 179.398438 144.539062 177.964844 145.773438 177.058594 C 146.535156 176.503906 147.472656 176.183594 148.121094 175.5 C 148.539062 175.058594 148.808594 174.496094 149.183594 174.023438 C 149.761719 173.296875 150.433594 173.101562 151.199219 172.691406 C 151.8125 172.363281 152.3125 171.96875 152.980469 171.707031 C 153.726562 171.414062 154.652344 171.050781 155.671875 170.328125 C 157.757812 168.855469 159.945312 168.808594 162.378906 168.652344 C 162.785156 168.625 163.195312 168.585938 163.589844 168.492188 C 164.675781 168.238281 165.621094 167.597656 166.542969 166.972656 C 167.714844 166.175781 168.402344 165.179688 169.4375 164.253906 C 171.253906 162.632812 173.753906 161.820312 176.132812 161.582031 C 177.628906 161.429688 179.101562 161.21875 180.523438 161.015625 C 182.882812 160.675781 185.113281 160.359375 187.34375 160.3125 C 189.117188 160.277344 190.707031 160.421875 192.199219 160.761719 C 193.511719 161.0625 194.828125 161.160156 196.105469 161.253906 C 196.847656 161.308594 197.550781 161.359375 198.214844 161.449219 C 199.96875 161.683594 201.605469 162.339844 203.164062 163.152344 C 204.601562 163.902344 205.886719 164.785156 207.296875 165.59375 C 207.828125 165.898438 208.363281 166.199219 208.941406 166.390625 C 209.851562 166.6875 210.839844 166.585938 211.785156 166.773438 C 212.792969 166.976562 213.824219 167.085938 214.832031 167.3125 C 217.035156 167.804688 219.019531 168.496094 220.902344 169.785156 C 221.984375 170.523438 223.109375 171.308594 224.074219 172.203125 C 225.15625 173.207031 226.113281 174.335938 227.234375 175.289062 C 229.351562 177.09375 232.042969 178.289062 233.640625 180.5625 C 234.089844 181.203125 234.4375 181.914062 234.78125 182.617188 C 235.042969 183.15625 235.304688 183.695312 235.515625 184.253906 C 235.863281 185.167969 236.066406 186.132812 236.445312 187.035156 C 236.601562 187.394531 236.859375 187.695312 237.015625 188.039062 C 237.207031 188.445312 237.21875 188.960938 237.308594 189.402344 C 237.71875 191.429688 238.394531 193.390625 239.097656 195.332031 C 239.398438 196.167969 239.707031 197.011719 240.214844 197.746094 C 240.867188 198.691406 241.792969 199.398438 242.511719 200.289062 C 243.203125 201.140625 243.371094 202.113281 243.78125 203.09375 C 244.695312 205.277344 244.769531 207.710938 245.140625 210.023438 C 245.484375 212.175781 245.746094 214.5 245.9375 217.117188 C 245.964844 217.539062 246.003906 217.964844 246.042969 218.417969 C 246.105469 219.132812 246.171875 219.894531 246.207031 220.640625 C 246.640625 220.585938 247.074219 220.527344 247.503906 220.453125 C 248.222656 220.335938 248.96875 220.136719 249.648438 219.890625 C 249.667969 218.886719 249.625 217.902344 249.566406 216.898438 C 249.539062 216.457031 249.503906 216.015625 249.460938 215.574219 C 249.238281 213.304688 248.988281 211.011719 248.5625 208.769531 C 248.203125 206.882812 247.53125 204.894531 247.519531 202.988281 C 247.507812 201.050781 246.566406 199.023438 245.898438 197.234375 C 245.3125 195.667969 244.726562 193.808594 243.679688 192.484375 C 242.652344 191.199219 242.144531 189.609375 241.425781 188.125 C 240.832031 186.902344 240.226562 185.664062 239.457031 184.550781 C 238.675781 183.414062 237.746094 182.449219 236.878906 181.378906 C 234.65625 178.625 233.511719 175.257812 230.625 173.058594 C 229.394531 172.117188 228.03125 171.359375 226.757812 170.472656 C 224.425781 168.84375 222.421875 166.777344 220.074219 165.171875 C 218.3125 163.96875 216.386719 163.042969 214.464844 162.117188 C 213.109375 161.464844 211.75 160.8125 210.335938 160.300781 C 209.046875 159.828125 207.714844 159.476562 206.375 159.15625 C 202.9375 158.332031 199.449219 157.710938 195.941406 157.296875 C 194.882812 157.171875 193.835938 156.949219 192.769531 156.878906 C 191.851562 156.820312 190.964844 156.949219 190.050781 156.828125 C 187.679688 156.515625 185.101562 156.867188 182.710938 156.9375 C 182.230469 156.949219 181.75 156.964844 181.269531 157.019531 C 180 157.167969 178.769531 157.613281 177.496094 157.714844 C 176.695312 157.777344 175.867188 157.703125 175.109375 157.960938 C 174.4375 158.1875 173.871094 158.65625 173.195312 158.871094 C 172.046875 159.234375 170.765625 158.808594 169.601562 159.132812 C 168.753906 159.367188 168.070312 159.972656 167.3125 160.417969 C 166.054688 161.160156 164.589844 161.316406 163.398438 162.164062 C 162.488281 162.808594 161.675781 163.640625 160.621094 164.007812 C 159.863281 164.269531 159.027344 164.273438 158.285156 164.578125 C 157 165.105469 155.691406 165.976562 154.457031 166.65625 C 153.003906 167.453125 151.625 168.378906 150.339844 169.425781 C 149.195312 170.351562 148.125 171.371094 147.058594 172.390625 C 146.292969 173.121094 145.523438 173.855469 144.757812 174.585938 C 143.015625 176.246094 141.269531 177.914062 139.742188 179.777344 C 136.878906 183.273438 134.863281 187.367188 132.871094 191.421875 C 132.019531 193.15625 130.957031 194.816406 130.363281 196.640625 C 129.695312 198.699219 129 201.128906 127.824219 202.960938 C 127.40625 203.820312 126.964844 204.675781 126.71875 205.601562 C 126.339844 207.035156 126.464844 208.546875 126.269531 210.015625 C 126.144531 210.953125 125.890625 211.871094 125.742188 212.804688 C 125.484375 214.449219 125.558594 216.125 125.632812 217.789062 C 125.691406 219.144531 125.753906 220.5 125.8125 221.855469 " fill-opacity="1" fill-rule="nonzero"/></g><path fill="#ffd246" d="M 183.335938 217.34375 C 183.417969 217.101562 183.628906 216.925781 183.847656 216.800781 C 184.070312 216.675781 184.316406 216.589844 184.535156 216.460938 C 185.203125 216.078125 185.605469 215.285156 185.527344 214.519531 C 185.5 214.277344 185.4375 214.019531 185.558594 213.808594 C 185.675781 213.597656 185.949219 213.519531 186.1875 213.550781 C 186.53125 213.601562 186.804688 213.84375 187.132812 213.949219 C 187.628906 214.101562 188.160156 214.128906 188.671875 214.035156 C 188.890625 213.996094 189.132812 213.945312 189.3125 213.816406 C 189.480469 213.695312 189.585938 213.554688 189.816406 213.535156 C 190.242188 213.507812 190.574219 213.960938 190.710938 214.363281 C 190.851562 214.765625 190.941406 215.226562 191.304688 215.480469 C 191.542969 215.652344 191.867188 215.699219 192.070312 215.90625 C 192.269531 216.113281 192.28125 216.394531 192.199219 216.652344 C 192.160156 216.761719 192.101562 216.871094 192.03125 216.964844 C 191.808594 217.261719 191.480469 217.488281 191.324219 217.828125 C 191.257812 217.964844 191.226562 218.117188 191.214844 218.269531 C 191.207031 218.417969 191.234375 218.546875 191.273438 218.671875 C 188.738281 218.65625 186.203125 218.625 183.667969 218.488281 C 183.660156 218.382812 183.640625 218.273438 183.609375 218.171875 C 183.601562 218.140625 183.589844 218.109375 183.582031 218.082031 C 183.464844 217.785156 183.21875 217.695312 183.335938 217.34375 " fill-opacity="1" fill-rule="nonzero"/><path fill="#ffd246" d="M 171.355469 168.886719 C 173.796875 164.578125 180.472656 164.089844 185.386719 163.992188 C 189.726562 163.902344 194.179688 164.203125 198.351562 165.464844 C 208.289062 168.472656 197.78125 187.128906 195.765625 192.175781 C 194.003906 196.59375 192.242188 201.015625 190.480469 205.433594 C 190.097656 206.390625 189.332031 209.941406 188.578125 210.476562 C 186.496094 211.941406 185.699219 208.171875 185.148438 206.917969 C 184.351562 205.109375 183.503906 203.320312 182.683594 201.523438 C 180.71875 197.21875 178.75 192.914062 176.78125 188.605469 C 174.457031 183.515625 170.128906 178.15625 170.421875 172.289062 C 170.488281 170.949219 170.820312 169.828125 171.355469 168.886719 " fill-opacity="1" fill-rule="nonzero"/><g clip-path="url(#f145246aed)"><path fill="#ffd246" d="M 146.476562 220.796875 C 149.601562 220.382812 152.742188 220.0625 155.886719 219.808594 C 163.101562 218.882812 170.375 218.203125 177.648438 218.265625 C 176.71875 217.300781 174.457031 216.667969 173.558594 216.320312 C 164.058594 212.621094 154.5625 208.917969 145.058594 205.226562 C 142.972656 204.417969 140.800781 203.78125 138.851562 203.894531 C 136.742188 204.019531 134.894531 205.023438 133.703125 207.636719 C 131.976562 211.429688 131.863281 216.003906 131.761719 220.101562 C 131.75 220.550781 131.742188 221.03125 131.742188 221.542969 C 136.65625 221.226562 141.582031 221.4375 146.476562 220.796875 " fill-opacity="1" fill-rule="nonzero"/></g><path fill="#ffd246" d="M 143.15625 198.613281 C 141.339844 196.699219 140.363281 194.429688 140.855469 191.695312 C 141.609375 187.496094 144.566406 183.457031 147.703125 180.726562 C 152.078125 176.921875 158.613281 171.65625 164.660156 174.972656 C 167.863281 176.730469 169.363281 183.039062 170.84375 186.324219 C 172.917969 190.929688 174.996094 195.539062 177.070312 200.144531 C 178.710938 203.785156 184.417969 213.066406 182.769531 214.417969 C 181.234375 215.679688 176.011719 212.890625 173.402344 211.875 C 170.238281 210.640625 167.070312 209.40625 163.90625 208.175781 C 159.078125 206.292969 148.058594 203.765625 143.15625 198.613281 " fill-opacity="1" fill-rule="nonzero"/><path fill="#ffd246" d="M 203.191406 219.019531 C 203.453125 219.007812 203.714844 219 203.976562 218.996094 C 206.679688 218.945312 209.390625 219.253906 212.089844 219.367188 C 217.519531 219.597656 222.953125 219.617188 228.375 219.925781 C 229.546875 219.992188 230.714844 220.089844 231.875 220.207031 C 234.601562 220.285156 237.316406 220.457031 240.039062 220.597656 C 240.859375 220.636719 241.683594 220.671875 242.507812 220.691406 C 242.550781 219.871094 242.578125 219.101562 242.605469 218.417969 C 242.9375 210.488281 240.722656 197.921875 229.921875 202.539062 C 225.816406 204.292969 221.761719 206.175781 217.6875 207.992188 C 213.222656 209.980469 208.757812 211.96875 204.292969 213.960938 C 202.90625 214.578125 196.058594 216.8125 194.441406 218.691406 C 195.882812 218.703125 197.320312 218.71875 198.761719 218.757812 C 200.242188 218.796875 201.71875 218.894531 203.191406 219.019531 " fill-opacity="1" fill-rule="nonzero"/><path fill="#ffd246" d="M 211.632812 173.042969 C 216.140625 171.984375 221.792969 175.253906 225.765625 178.828125 C 230.621094 183.191406 235.492188 190.023438 230.480469 196.1875 C 226.957031 200.515625 220.714844 201.808594 215.84375 203.976562 C 211.511719 205.90625 207.175781 207.835938 202.84375 209.765625 C 201.078125 210.550781 195.152344 214.609375 193.296875 213.121094 C 191.179688 211.425781 195.417969 205.449219 196.101562 203.714844 C 197.851562 199.269531 199.597656 194.828125 201.347656 190.386719 C 202.886719 186.472656 204.429688 182.5625 205.96875 178.652344 C 207.296875 175.273438 209.3125 173.585938 211.632812 173.042969 " fill-opacity="1" fill-rule="nonzero"/><path fill="#ffd246" d="M 177.621094 172.023438 C 178.777344 170.714844 180.625 169.824219 182.824219 169.511719 C 185.5625 169.125 188.402344 169.722656 190.617188 171.144531 C 191.355469 171.617188 192.011719 172.175781 192.570312 172.808594 C 193.367188 173.710938 193.957031 174.855469 194.28125 176.117188 C 195.007812 178.949219 194.1875 181.625 193.320312 184.453125 C 193.234375 184.734375 193.148438 185.015625 193.0625 185.296875 C 192.597656 186.847656 191.957031 188.484375 191.109375 190.296875 C 190.894531 190.753906 190.695312 191.222656 190.503906 191.675781 C 189.773438 193.394531 189.085938 195.019531 187.691406 195.867188 C 187.203125 196.164062 186.457031 196.5 185.691406 196.421875 C 185.375 196.386719 185.070312 196.277344 184.765625 196.082031 C 183.46875 195.246094 182.480469 193.109375 181.761719 191.550781 C 181.589844 191.183594 181.429688 190.835938 181.273438 190.523438 C 180.039062 188.019531 178.933594 185.421875 177.996094 182.800781 C 176.585938 178.867188 175.4375 174.507812 177.621094 172.023438 Z M 169.191406 172.226562 C 168.957031 176.839844 171.253906 180.964844 173.476562 184.953125 C 174.28125 186.398438 175.042969 187.765625 175.660156 189.117188 L 178.613281 195.578125 L 181.5625 202.039062 C 181.835938 202.636719 182.113281 203.238281 182.390625 203.835938 C 182.933594 205.007812 183.492188 206.21875 184.019531 207.414062 C 184.09375 207.585938 184.191406 207.859375 184.292969 208.152344 C 184.734375 209.394531 185.277344 210.9375 186.402344 211.660156 C 186.8125 211.921875 187.257812 212.050781 187.726562 212.042969 C 188.25 212.03125 188.777344 211.84375 189.289062 211.484375 C 190.117188 210.902344 190.574219 209.460938 191.234375 207.164062 C 191.386719 206.625 191.535156 206.117188 191.625 205.890625 L 196.914062 192.632812 C 197.1875 191.9375 197.652344 190.933594 198.191406 189.765625 C 199.703125 186.488281 201.992188 181.535156 203.109375 176.964844 C 203.714844 174.488281 204.117188 171.765625 203.476562 169.25 C 202.144531 164.007812 195.34375 164.296875 191.148438 163.519531 C 189.589844 163.230469 188.023438 162.941406 186.4375 162.894531 C 184.539062 162.839844 182.660156 163.140625 180.804688 163.507812 C 179.386719 163.789062 178.019531 163.679688 176.589844 163.992188 C 173.726562 164.621094 171.738281 165.710938 170.28125 168.277344 C 169.632812 169.425781 169.265625 170.75 169.191406 172.226562 " fill-opacity="1" fill-rule="nonzero"/><g clip-path="url(#b23af58ed5)"><path fill="#ffd246" d="M 131.480469 221.558594 C 132.96875 221.457031 134.460938 221.40625 135.949219 221.367188 C 135.964844 221.300781 135.976562 221.234375 135.992188 221.167969 C 136.234375 220.007812 136.277344 218.691406 136.375 217.511719 C 136.476562 216.257812 137.054688 214.78125 137.835938 213.789062 C 138.617188 212.800781 139.761719 212.25 140.996094 212.105469 C 141.550781 212.042969 142.050781 211.957031 142.617188 211.960938 C 142.835938 211.960938 143.722656 212.078125 143.867188 211.851562 C 144.589844 211.832031 145.320312 211.8125 146.035156 211.917969 C 147.125 212.074219 148.152344 212.507812 149.203125 212.835938 C 150.855469 213.347656 152.578125 213.597656 154.203125 214.183594 C 155.296875 214.574219 156.328125 215.109375 157.355469 215.644531 C 158.414062 216.191406 159.46875 216.742188 160.527344 217.289062 C 161.339844 217.714844 162.15625 218.136719 162.972656 218.5625 C 163.191406 218.675781 163.476562 218.789062 163.753906 218.921875 C 163.753906 218.921875 164.554688 218.847656 164.792969 218.824219 C 165.171875 218.792969 165.546875 218.761719 165.925781 218.730469 C 166.679688 218.667969 167.4375 218.609375 168.191406 218.558594 C 169.703125 218.460938 171.214844 218.378906 172.730469 218.328125 C 175.679688 218.230469 178.605469 218.320312 181.550781 218.367188 C 181.183594 217.804688 180.53125 217.507812 179.910156 217.25 C 178.617188 216.710938 177.300781 216.214844 175.96875 215.769531 C 174.796875 215.378906 173.445312 215.160156 172.363281 214.582031 C 171.15625 213.9375 169.777344 213.527344 168.503906 213.027344 C 167.175781 212.511719 165.851562 211.996094 164.523438 211.480469 C 158.292969 209.050781 151.847656 206.542969 145.503906 204.078125 C 141.296875 202.441406 135.960938 201.59375 132.703125 205.535156 C 132.316406 206.003906 131.980469 206.527344 131.816406 207.109375 C 131.4375 208.464844 131.652344 210.039062 131.394531 211.433594 C 131.246094 212.253906 130.773438 212.921875 130.554688 213.710938 C 130.371094 214.375 130.292969 215.15625 130.199219 215.835938 C 129.941406 217.777344 130.503906 219.695312 130.511719 221.632812 C 130.839844 221.605469 131.160156 221.582031 131.480469 221.558594 " fill-opacity="1" fill-rule="nonzero"/></g><path fill="#ffd246" d="M 148.539062 188.355469 C 150.855469 185.414062 153.382812 183.578125 155.300781 183.445312 C 157.589844 183.289062 160.246094 183.984375 162.234375 185.261719 C 162.484375 185.421875 162.726562 185.59375 162.949219 185.769531 C 165.128906 187.484375 166.65625 189.910156 167.859375 192.058594 C 168.957031 194.015625 169.953125 196.054688 170.824219 198.121094 C 170.941406 198.402344 171.0625 198.6875 171.1875 198.976562 C 171.628906 199.992188 172.082031 201.039062 172.382812 202.074219 C 172.59375 202.804688 172.707031 203.441406 172.726562 204.027344 C 172.75 204.777344 172.53125 205.445312 172.140625 205.816406 C 171.808594 206.132812 171.277344 206.324219 170.636719 206.355469 C 169.089844 206.4375 167.398438 205.960938 165.765625 205.5 C 165.457031 205.414062 165.148438 205.324219 164.847656 205.246094 C 162.632812 204.644531 160.699219 204.039062 158.949219 203.394531 C 155.910156 202.28125 153.316406 201.019531 151.011719 199.539062 C 150.886719 199.460938 150.761719 199.378906 150.640625 199.296875 C 147.894531 197.480469 146.441406 195.691406 146.054688 193.667969 C 145.722656 191.929688 147.554688 189.605469 148.539062 188.355469 Z M 139.640625 191.476562 C 139.117188 194.394531 140 197.082031 142.265625 199.460938 C 143.148438 200.390625 144.269531 201.292969 145.59375 202.144531 C 149.699219 204.78125 155.078125 206.53125 159.398438 207.933594 C 161.003906 208.457031 162.390625 208.90625 163.457031 209.324219 L 171.390625 212.414062 L 172.953125 213.023438 C 173.464844 213.222656 174.105469 213.503906 174.78125 213.800781 C 177.144531 214.835938 179.820312 216.011719 181.722656 215.972656 C 182.46875 215.957031 183.085938 215.753906 183.550781 215.371094 C 184.886719 214.277344 184.210938 212.066406 183.28125 209.839844 C 182.425781 207.789062 181.152344 205.375 180.027344 203.246094 C 179.292969 201.851562 178.597656 200.535156 178.195312 199.636719 L 176.632812 196.171875 L 171.96875 185.816406 C 171.625 185.054688 171.265625 184.082031 170.886719 183.054688 C 169.625 179.640625 168.195312 175.765625 165.582031 174.089844 C 165.476562 174.019531 165.363281 173.953125 165.253906 173.894531 C 163.746094 173.066406 162.074219 172.699219 160.367188 172.652344 C 158.613281 172.601562 157.195312 173.617188 155.511719 173.957031 C 154.933594 174.074219 154.335938 174.09375 153.761719 174.234375 C 150.902344 174.945312 148.621094 178.441406 146.675781 180.449219 C 146.355469 180.785156 146.03125 181.117188 145.707031 181.449219 C 144.421875 182.765625 143.25 184.09375 141.949219 185.382812 C 140.375 187.097656 140.035156 189.296875 139.640625 191.476562 " fill-opacity="1" fill-rule="nonzero"/><path fill="#ffd246" d="M 203.1875 219.019531 C 203.449219 219.007812 203.714844 219 203.976562 218.996094 C 205.96875 218.957031 207.964844 219.113281 209.957031 219.246094 C 210.746094 218.527344 211.929688 217.84375 212.988281 217.234375 C 213.296875 217.054688 213.589844 216.886719 213.871094 216.71875 C 214.878906 216.117188 215.925781 215.605469 217.03125 215.066406 C 217.382812 214.894531 217.734375 214.722656 218.082031 214.546875 C 222.203125 212.488281 226.3125 211.375 230.289062 211.230469 C 231.285156 211.195312 232.574219 211.207031 233.683594 211.625 C 233.9375 211.71875 234.179688 211.839844 234.40625 211.984375 C 236.53125 213.351562 237.066406 216.730469 237.199219 218.121094 C 237.273438 218.898438 237.304688 219.675781 237.300781 220.449219 C 238.214844 220.5 239.125 220.550781 240.039062 220.597656 C 241.269531 220.65625 242.507812 220.707031 243.742188 220.710938 C 243.828125 218.949219 244.207031 217.585938 243.886719 215.78125 C 243.640625 214.382812 243.46875 212.941406 243.140625 211.5625 C 242.835938 210.285156 242.363281 209.128906 242.355469 207.777344 C 242.355469 207.183594 242.414062 206.585938 242.324219 206 C 242.171875 204.988281 241.59375 204.089844 240.929688 203.3125 C 239.597656 201.753906 237.746094 200.523438 235.703125 200.171875 C 233.714844 199.828125 231.257812 200.628906 229.433594 201.40625 C 226.691406 202.578125 223.929688 203.828125 221.257812 205.03125 C 218.621094 206.222656 216.042969 207.257812 213.320312 208.21875 C 210.550781 209.195312 207.8125 210.320312 205.304688 211.859375 C 202.835938 213.371094 200.007812 214.203125 197.390625 215.414062 C 196.359375 215.890625 195.3125 216.402344 194.402344 217.085938 C 194.238281 217.210938 192.992188 218.683594 193.007812 218.683594 C 194.925781 218.691406 196.84375 218.703125 198.761719 218.757812 C 200.242188 218.796875 201.714844 218.894531 203.1875 219.019531 " fill-opacity="1" fill-rule="nonzero"/><path fill="#ffd246" d="M 209.757812 184.753906 C 210.3125 183.867188 210.902344 183.003906 211.632812 182.3125 C 212.894531 181.109375 214.769531 180.683594 216.496094 180.925781 C 218.976562 181.273438 221.421875 182.882812 222.949219 184.839844 C 223.582031 185.65625 224.042969 186.53125 224.449219 187.476562 C 224.761719 188.203125 225.316406 188.902344 225.527344 189.652344 C 225.636719 190.035156 225.609375 190.445312 225.566406 190.84375 C 225.117188 194.878906 221.980469 197.265625 218.414062 198.746094 C 217.835938 198.988281 217.25 199.183594 216.632812 199.394531 C 215.929688 199.632812 215.199219 199.878906 214.464844 200.199219 L 210.308594 202.003906 C 209.722656 202.257812 209.117188 202.550781 208.535156 202.835938 C 206.53125 203.804688 204.460938 204.8125 202.488281 204.59375 C 202.191406 204.5625 201.914062 204.472656 201.710938 204.339844 C 201.609375 204.277344 201.527344 204.203125 201.46875 204.121094 C 201.113281 203.644531 201.277344 202.71875 201.507812 201.785156 C 201.542969 201.636719 201.585938 201.484375 201.625 201.335938 C 202.230469 199.140625 203.230469 197.113281 204.289062 194.964844 C 204.667969 194.191406 205.0625 193.394531 205.433594 192.585938 L 205.546875 192.34375 C 206.410156 190.472656 207.273438 188.582031 208.429688 186.871094 C 208.882812 186.203125 209.308594 185.46875 209.757812 184.753906 Z M 200.199219 189.933594 L 196.835938 198.480469 L 194.953125 203.261719 C 194.824219 203.589844 194.472656 204.226562 194.097656 204.902344 C 193.375 206.203125 192.480469 207.820312 191.945312 209.351562 C 191.171875 211.5625 191.367188 213.15625 192.523438 214.085938 C 192.59375 214.136719 192.664062 214.1875 192.738281 214.234375 C 193.214844 214.542969 193.804688 214.691406 194.488281 214.679688 C 196.617188 214.636719 199.578125 212.96875 201.742188 211.753906 C 202.421875 211.371094 203.003906 211.042969 203.347656 210.890625 L 208.59375 208.554688 L 216.347656 205.105469 C 217.554688 204.566406 218.839844 204.085938 220.203125 203.578125 C 224.332031 202.042969 228.601562 200.449219 231.4375 196.964844 C 232.71875 195.386719 234.085938 192.902344 233.902344 190.789062 C 233.769531 189.25 233.453125 187.832031 233.003906 186.367188 C 231.886719 182.734375 228.992188 180.652344 226.433594 178.054688 C 225.167969 176.769531 224.007812 175.234375 222.503906 174.214844 C 221.320312 173.414062 219.703125 173.191406 218.394531 172.644531 C 216.785156 171.976562 214.984375 171.574219 213.238281 171.609375 C 212.585938 171.621094 211.953125 171.699219 211.351562 171.84375 C 208.40625 172.53125 206.210938 174.671875 204.820312 178.199219 C 203.28125 182.109375 201.742188 186.023438 200.199219 189.933594 " fill-opacity="1" fill-rule="nonzero"/><path fill="#ffd246" d="M 228.375 219.925781 C 229.546875 219.992188 230.710938 220.089844 231.875 220.207031 C 233.101562 220.242188 234.328125 220.296875 235.554688 220.359375 C 235.550781 220.292969 235.550781 220.226562 235.546875 220.164062 C 235.300781 216.636719 232.769531 212.910156 228.953125 214.917969 C 227.5625 215.652344 226.296875 216.625 225.238281 217.785156 C 224.714844 218.359375 224.234375 219.011719 223.96875 219.730469 C 225.4375 219.78125 226.90625 219.839844 228.375 219.925781 " fill-opacity="1" fill-rule="nonzero"/><path fill="#ffd246" d="M 221.292969 193.023438 C 220.613281 193.585938 219.761719 193.960938 218.890625 194.125 C 217.105469 194.464844 212.503906 194.234375 211.996094 191.925781 C 211.835938 191.1875 212.046875 190.417969 212.128906 189.683594 C 212.226562 188.804688 212.359375 187.914062 212.667969 187.078125 C 213.4375 185 215.53125 183.402344 217.769531 184.285156 C 219.574219 185 220.464844 186.457031 221.574219 187.90625 C 222.457031 189.054688 223.03125 190.253906 222.359375 191.675781 C 222.109375 192.199219 221.738281 192.652344 221.292969 193.023438 " fill-opacity="1" fill-rule="nonzero"/><path fill="#ffd246" d="M 190.03125 174.808594 C 190.175781 175.367188 190.195312 175.945312 190.066406 176.441406 C 189.871094 177.183594 189.464844 177.851562 189.0625 178.507812 C 188.636719 179.199219 188.207031 179.902344 187.632812 180.480469 C 187.058594 181.054688 186.316406 181.507812 185.503906 181.574219 C 184.390625 181.671875 183.332031 181.046875 182.5 180.292969 C 181.308594 179.21875 179.226562 176.691406 179.679688 174.957031 C 180.199219 172.957031 182.585938 171.980469 184.453125 171.882812 C 185.828125 171.8125 187.695312 172.132812 188.851562 172.957031 C 189.417969 173.367188 189.835938 174.066406 190.03125 174.808594 " fill-opacity="1" fill-rule="nonzero"/><path fill="#ffd246" d="M 157.652344 187.460938 C 158.929688 188.515625 159.441406 190.480469 159.695312 192.042969 C 159.910156 193.34375 159.726562 194.765625 158.902344 195.792969 C 157.515625 197.519531 155.308594 197.324219 153.445312 196.589844 C 152.105469 196.0625 150.46875 195.394531 149.695312 194.097656 C 148.65625 192.351562 150.351562 190.023438 151.410156 188.671875 C 152.105469 187.78125 153.027344 187.027344 154.121094 186.730469 C 155.21875 186.429688 156.449219 186.632812 157.394531 187.269531 C 157.480469 187.332031 157.566406 187.394531 157.652344 187.460938 " fill-opacity="1" fill-rule="nonzero"/><g clip-path="url(#9de52d0409)"><path fill="#ffd246" d="M 146.476562 220.796875 C 147.410156 220.671875 148.34375 220.5625 149.277344 220.453125 C 148.988281 219.386719 147.988281 218.628906 147.058594 217.984375 C 146.136719 217.34375 145.191406 216.695312 144.117188 216.371094 C 143.445312 216.167969 142.832031 216.140625 142.277344 216.246094 C 140.167969 216.648438 138.960938 219.019531 138.898438 221.296875 C 141.429688 221.230469 143.957031 221.125 146.476562 220.796875 " fill-opacity="1" fill-rule="nonzero"/></g></svg>